<?xml version="1.0" encoding="UTF-8"?>
<!DOCTYPE svg PUBLIC "-//W3C//DTD SVG 1.1//EN" "http://www.w3.org/Graphics/SVG/1.1/DTD/svg11.dtd">
<svg xmlns="http://www.w3.org/2000/svg" version="1.1" width="985px" height="763px" style="shape-rendering:geometricPrecision; text-rendering:geometricPrecision; image-rendering:optimizeQuality; fill-rule:evenodd; clip-rule:evenodd" xmlns:xlink="http://www.w3.org/1999/xlink">
<g><path style="opacity:0.773" fill="#b8daf9" d="M 497.5,82.5 C 496.672,76.3466 496.172,70.0133 496,63.5C 495.187,68.8149 494.521,74.1483 494,79.5C 493.398,59.8311 492.731,40.1645 492,20.5C 491.586,20.0426 491.086,19.7093 490.5,19.5C 489.571,20.6888 489.238,22.0222 489.5,23.5C 487.856,23.7135 486.356,23.3802 485,22.5C 484.626,23.4162 484.126,24.2496 483.5,25C 484.554,26.3876 484.72,27.8876 484,29.5C 483.586,29.0426 483.086,28.7093 482.5,28.5C 481.818,29.2427 481.151,29.9094 480.5,30.5C 482.741,21.741 487.408,14.0744 494.5,7.5C 495.799,8.09001 496.632,9.09001 497,10.5C 497.5,34.4977 497.667,58.4977 497.5,82.5 Z"/></g>
<g><path style="opacity:1" fill="#8eb1ee" d="M 494.5,170.5 C 495.117,170.389 495.617,170.056 496,169.5C 496.71,170.973 497.876,171.64 499.5,171.5C 504.145,173.269 508.479,175.603 512.5,178.5C 514.604,179.912 516.937,180.912 519.5,181.5C 522.036,187.402 520.536,191.735 515,194.5C 514.667,194.167 514.333,193.833 514,193.5C 513.71,195.044 513.044,196.377 512,197.5C 511.667,196.833 511.333,196.167 511,195.5C 510,196.833 509,198.167 508,199.5C 506.493,198.465 504.993,198.632 503.5,200C 504.34,201.666 503.84,201.833 502,200.5C 500.955,201.373 500.122,202.373 499.5,203.5C 497.342,204.494 495.342,205.828 493.5,207.5C 491.036,206.651 488.369,206.317 485.5,206.5C 486.588,205.066 487.922,204.066 489.5,203.5C 492.599,201.618 495.932,200.285 499.5,199.5C 499.5,198.167 499.5,196.833 499.5,195.5C 497.508,195.328 495.842,195.995 494.5,197.5C 493.692,197.192 493.025,196.692 492.5,196C 496.24,193.476 496.24,191.142 492.5,189C 494.677,187.814 495.677,185.981 495.5,183.5C 493.508,183.328 491.842,183.995 490.5,185.5C 489.417,184.635 489.251,183.635 490,182.5C 491.697,181.636 492.863,180.303 493.5,178.5C 492.833,178.167 492.167,177.833 491.5,177.5C 490.051,178.28 488.551,178.946 487,179.5C 484.289,178.903 481.622,178.57 479,178.5C 478.693,181.876 476.86,183.21 473.5,182.5C 473.52,180.857 472.853,179.524 471.5,178.5C 473.984,177.106 473.984,175.606 471.5,174C 471.511,142.049 471.844,110.049 472.5,78C 472.259,76.0164 471.592,74.1831 470.5,72.5C 471.553,69.6238 472.22,66.9571 472.5,64.5C 471.919,62.2764 470.586,61.443 468.5,62C 467.445,65.5371 465.779,68.7037 463.5,71.5C 462.808,70.9747 462.308,70.3081 462,69.5C 461.858,74.7462 460.192,79.4129 457,83.5C 456.667,82.5 456.333,81.5 456,80.5C 455.578,82.4257 454.411,83.4257 452.5,83.5C 452.46,80.5755 453.293,77.9088 455,75.5C 455.333,75.8333 455.667,76.1667 456,76.5C 459.85,67.4865 464.35,58.8198 469.5,50.5C 470.167,50.5 470.833,50.5 471.5,50.5C 472.089,53.7848 473.256,54.1181 475,51.5C 475.494,49.8659 475.66,48.1992 475.5,46.5C 476.822,46.33 477.989,46.6634 479,47.5C 478.383,45.9052 478.716,44.5719 480,43.5C 480.167,45 480.333,46.5 480.5,48C 479.519,82.6715 479.186,117.005 479.5,151C 480.206,154.131 480.873,157.298 481.5,160.5C 478.961,163.184 478.961,165.851 481.5,168.5C 480.05,169.85 479.383,171.516 479.5,173.5C 483.257,173.286 483.924,174.286 481.5,176.5C 482,176.833 482.5,177.167 483,177.5C 486.397,176.423 489.564,174.923 492.5,173C 493.381,172.292 494.047,171.458 494.5,170.5 Z"/></g>
<g><path style="opacity:1" fill="#8fb9f2" d="M 494.5,170.5 C 494.047,171.458 493.381,172.292 492.5,173C 489.564,174.923 486.397,176.423 483,177.5C 482.5,177.167 482,176.833 481.5,176.5C 483.924,174.286 483.257,173.286 479.5,173.5C 479.383,171.516 480.05,169.85 481.5,168.5C 478.961,165.851 478.961,163.184 481.5,160.5C 480.873,157.298 480.206,154.131 479.5,151C 479.186,117.005 479.519,82.6715 480.5,48C 480.333,46.5 480.167,45 480,43.5C 478.716,44.5719 478.383,45.9052 479,47.5C 477.989,46.6634 476.822,46.33 475.5,46.5C 475.66,48.1992 475.494,49.8659 475,51.5C 473.256,54.1181 472.089,53.7848 471.5,50.5C 472.122,49.3734 472.955,48.3734 474,47.5C 474.112,42.2773 476.112,37.944 480,34.5C 480.483,35.448 480.649,36.448 480.5,37.5C 481.978,37.238 483.311,37.5713 484.5,38.5C 485.407,41.4212 485.74,44.4212 485.5,47.5C 486.5,47.5 487.5,47.5 488.5,47.5C 488.5,84.8333 488.5,122.167 488.5,159.5C 481.991,160.962 482.325,161.629 489.5,161.5C 489.762,162.978 489.429,164.311 488.5,165.5C 486.77,166.026 485.436,167.026 484.5,168.5C 486.841,169.712 489.007,169.378 491,167.5C 491.333,168.833 491.667,170.167 492,171.5C 492.601,169.641 493.434,169.308 494.5,170.5 Z"/></g>
<g><path style="opacity:1" fill="#a1c9f4" d="M 497.5,82.5 C 496.854,112.391 497.52,142.058 499.5,171.5C 497.876,171.64 496.71,170.973 496,169.5C 495.617,170.056 495.117,170.389 494.5,170.5C 493.434,169.308 492.601,169.641 492,171.5C 491.667,170.167 491.333,168.833 491,167.5C 489.007,169.378 486.841,169.712 484.5,168.5C 485.436,167.026 486.77,166.026 488.5,165.5C 489.429,164.311 489.762,162.978 489.5,161.5C 482.325,161.629 481.991,160.962 488.5,159.5C 488.5,122.167 488.5,84.8333 488.5,47.5C 487.5,47.5 486.5,47.5 485.5,47.5C 485.74,44.4212 485.407,41.4212 484.5,38.5C 483.311,37.5713 481.978,37.238 480.5,37.5C 480.649,36.448 480.483,35.448 480,34.5C 476.112,37.944 474.112,42.2773 474,47.5C 472.955,48.3734 472.122,49.3734 471.5,50.5C 470.833,50.5 470.167,50.5 469.5,50.5C 471.673,42.9513 475.34,36.2847 480.5,30.5C 481.151,29.9094 481.818,29.2427 482.5,28.5C 483.086,28.7093 483.586,29.0426 484,29.5C 484.72,27.8876 484.554,26.3876 483.5,25C 484.126,24.2496 484.626,23.4162 485,22.5C 486.356,23.3802 487.856,23.7135 489.5,23.5C 489.238,22.0222 489.571,20.6888 490.5,19.5C 491.086,19.7093 491.586,20.0426 492,20.5C 492.731,40.1645 493.398,59.8311 494,79.5C 494.521,74.1483 495.187,68.8149 496,63.5C 496.172,70.0133 496.672,76.3466 497.5,82.5 Z"/></g>
<g><path style="opacity:0.005" fill="#fefffe" d="M 519.5,69.5 C 519.5,104.167 519.5,138.833 519.5,173.5C 519.5,174.5 519.5,175.5 519.5,176.5C 519.5,178.167 519.5,179.833 519.5,181.5C 516.937,180.912 514.604,179.912 512.5,178.5C 516.412,176.009 518.246,172.343 518,167.5C 518.168,134.664 518.668,101.997 519.5,69.5 Z"/></g>
<g><path style="opacity:1" fill="#86a1ea" d="M 489.5,203.5 C 489.423,202.25 488.756,201.417 487.5,201C 489.113,198.772 489.78,196.272 489.5,193.5C 485.759,194.401 483.759,193.068 483.5,189.5C 485.635,189.853 486.968,189.02 487.5,187C 485.056,181.189 482.722,181.356 480.5,187.5C 477.711,185.702 474.711,185.202 471.5,186C 466.902,188.883 462.069,191.383 457,193.5C 456.5,193 456,192.5 455.5,192C 457.645,190.057 459.312,187.724 460.5,185C 459.196,184.196 458.529,183.029 458.5,181.5C 458.72,152.15 459.053,123.15 459.5,94.5C 458.447,91.6238 457.78,88.9571 457.5,86.5C 454.329,90.006 451.996,94.006 450.5,98.5C 449.675,99.3857 448.675,99.719 447.5,99.5C 446.81,103.212 445.31,106.545 443,109.5C 442.583,108.244 441.75,107.577 440.5,107.5C 443.569,98.908 447.569,90.908 452.5,83.5C 454.411,83.4257 455.578,82.4257 456,80.5C 456.333,81.5 456.667,82.5 457,83.5C 460.192,79.4129 461.858,74.7462 462,69.5C 462.308,70.3081 462.808,70.9747 463.5,71.5C 465.779,68.7037 467.445,65.5371 468.5,62C 470.586,61.443 471.919,62.2764 472.5,64.5C 472.22,66.9571 471.553,69.6238 470.5,72.5C 471.592,74.1831 472.259,76.0164 472.5,78C 471.844,110.049 471.511,142.049 471.5,174C 473.984,175.606 473.984,177.106 471.5,178.5C 472.853,179.524 473.52,180.857 473.5,182.5C 476.86,183.21 478.693,181.876 479,178.5C 481.622,178.57 484.289,178.903 487,179.5C 488.551,178.946 490.051,178.28 491.5,177.5C 492.167,177.833 492.833,178.167 493.5,178.5C 492.863,180.303 491.697,181.636 490,182.5C 489.251,183.635 489.417,184.635 490.5,185.5C 491.842,183.995 493.508,183.328 495.5,183.5C 495.677,185.981 494.677,187.814 492.5,189C 496.24,191.142 496.24,193.476 492.5,196C 493.025,196.692 493.692,197.192 494.5,197.5C 495.842,195.995 497.508,195.328 499.5,195.5C 499.5,196.833 499.5,198.167 499.5,199.5C 495.932,200.285 492.599,201.618 489.5,203.5 Z"/></g>
<g><path style="opacity:0.988" fill="#8e74d2" d="M 525.5,187.5 C 524.833,30.1667 524.167,30.1667 523.5,187.5C 522.503,187.53 521.836,187.03 521.5,186C 520.95,182.676 520.283,179.509 519.5,176.5C 519.5,175.5 519.5,174.5 519.5,173.5C 520.736,138.339 521.569,103.005 522,67.5C 523.974,67.6256 526.141,67.7922 528.5,68C 528,68.5 527.5,69 527,69.5C 526.833,109.002 526.333,148.335 525.5,187.5 Z"/></g>
<g><path style="opacity:1" fill="#714cce" d="M 525.5,187.5 C 524.833,187.5 524.167,187.5 523.5,187.5C 524.167,30.1667 524.833,30.1667 525.5,187.5 Z"/></g>
<g><path style="opacity:0.004" fill="#fdfefe" d="M 530.5,87.5 C 531.332,119.664 531.832,151.997 532,184.5C 533.289,187.168 534.456,189.835 535.5,192.5C 535.167,192.5 534.833,192.5 534.5,192.5C 534.5,192.167 534.5,191.833 534.5,191.5C 534.167,190.167 533.833,190.167 533.5,191.5C 532.542,191.047 531.708,190.381 531,189.5C 530.5,182.174 530.334,174.841 530.5,167.5C 530.5,140.833 530.5,114.167 530.5,87.5 Z"/></g>
<g><path style="opacity:0.004" fill="#eeeeee" d="M 550.5,125.5 C 550.5,149.5 550.5,173.5 550.5,197.5C 548.139,199.564 545.806,199.23 543.5,196.5C 545.173,195.657 546.34,194.324 547,192.5C 547.333,171.5 547.667,150.5 548,129.5C 548.934,128.142 549.768,126.808 550.5,125.5 Z"/></g>
<g><path style="opacity:1" fill="#7753d0" d="M 556.5,125.5 C 556.667,151.835 556.5,178.169 556,204.5C 555.586,204.957 555.086,205.291 554.5,205.5C 553.571,204.311 553.238,202.978 553.5,201.5C 553.5,176.167 553.5,150.833 553.5,125.5C 554.5,125.5 555.5,125.5 556.5,125.5 Z"/></g>
<g><path style="opacity:0.566" fill="#8f80e2" d="M 556.5,125.5 C 557.222,126.551 558.222,127.218 559.5,127.5C 559.333,152.502 559.5,177.502 560,202.5C 560.383,201.944 560.883,201.611 561.5,201.5C 561.5,202.167 561.5,202.833 561.5,203.5C 561.672,204.492 561.338,205.158 560.5,205.5C 554.102,208.328 550.769,206.328 550.5,199.5C 551.222,200.551 552.222,201.218 553.5,201.5C 553.238,202.978 553.571,204.311 554.5,205.5C 555.086,205.291 555.586,204.957 556,204.5C 556.5,178.169 556.667,151.835 556.5,125.5 Z"/></g>
<g><path style="opacity:0.751" fill="#9e8bde" d="M 530.5,87.5 C 530.5,114.167 530.5,140.833 530.5,167.5C 529.757,173.681 529.091,180.015 528.5,186.5C 528.048,188.312 526.882,189.312 525,189.5C 523.97,189.164 523.47,188.497 523.5,187.5C 524.167,187.5 524.833,187.5 525.5,187.5C 526.333,148.335 526.833,109.002 527,69.5C 527.5,69 528,68.5 528.5,68C 526.141,67.7922 523.974,67.6256 522,67.5C 521.569,103.005 520.736,138.339 519.5,173.5C 519.5,138.833 519.5,104.167 519.5,69.5C 519.227,67.549 519.893,66.049 521.5,65C 524.669,64.0218 527.503,64.5218 530,66.5C 530.5,73.4921 530.666,80.4921 530.5,87.5 Z"/></g>
<g><path style="opacity:1" fill="#777bde" d="M 439.5,201.5 C 439.119,200.069 438.119,199.236 436.5,199C 437.337,197.989 437.67,196.822 437.5,195.5C 432.728,195.633 432.562,194.3 437,191.5C 437.199,173.313 437.699,155.146 438.5,137C 437.833,135 437.167,133 436.5,131C 437.252,128.846 437.419,126.68 437,124.5C 436.617,125.056 436.117,125.389 435.5,125.5C 436.397,122.035 438.064,119.035 440.5,116.5C 441.938,118.998 441.604,121.164 439.5,123C 440.126,123.75 440.626,124.584 441,125.5C 444.199,124.764 444.365,125.597 441.5,128C 442.449,128.617 443.282,128.451 444,127.5C 444.667,148.833 444.667,170.167 444,191.5C 442.833,193.333 441.667,195.167 440.5,197C 441.624,197.249 442.624,197.749 443.5,198.5C 442.412,199.934 441.078,200.934 439.5,201.5 Z"/></g>
<g><path style="opacity:0.055" fill="#cabff4" d="M 560.5,125.5 C 561.498,150.661 561.831,175.995 561.5,201.5C 560.883,201.611 560.383,201.944 560,202.5C 559.5,177.502 559.333,152.502 559.5,127.5C 560.338,127.158 560.672,126.492 560.5,125.5 Z"/></g>
<g><path style="opacity:0.516" fill="#9183db" d="M 430.5,126.5 C 430.894,127.967 431.227,129.467 431.5,131C 430.415,135.717 428.415,139.883 425.5,143.5C 418.659,156.314 411.993,169.314 405.5,182.5C 403.297,182.604 401.297,183.27 399.5,184.5C 402.77,177.459 406.437,170.626 410.5,164C 409.549,163.282 409.383,162.449 410,161.5C 411.667,160.5 413,159.167 414,157.5C 417.174,149.277 421.008,142.11 425.5,136C 425.167,135.667 424.833,135.333 424.5,135C 426.399,132.012 428.399,129.179 430.5,126.5 Z"/></g>
<g><path style="opacity:1" fill="#715dd5" d="M 425.5,143.5 C 428.656,143.529 430.322,145.196 430.5,148.5C 428.893,152.058 429.227,155.392 431.5,158.5C 430.212,164.16 429.545,169.993 429.5,176C 429.521,181.882 429.854,187.715 430.5,193.5C 429.885,196.039 429.218,198.539 428.5,201C 429.051,202.398 429.384,203.732 429.5,205C 428.619,205.708 427.953,206.542 427.5,207.5C 425.641,209.13 423.641,210.796 421.5,212.5C 417.839,213.664 414.506,215.33 411.5,217.5C 410.925,215.647 410.591,213.814 410.5,212C 410.988,210.416 411.988,209.249 413.5,208.5C 412.324,202.916 411.657,197.749 411.5,193C 412.574,192.261 413.241,191.261 413.5,190C 412.028,186.885 410.194,184.052 408,181.5C 404.432,183.831 402.599,187.165 402.5,191.5C 400.833,192.5 399.5,193.833 398.5,195.5C 396.47,199.041 394.637,202.708 393,206.5C 392.333,207.167 391.667,207.833 391,208.5C 390.764,206.881 389.931,205.881 388.5,205.5C 389.643,202.736 390.977,200.069 392.5,197.5C 393.974,196.564 394.974,195.23 395.5,193.5C 396.553,190.393 397.886,187.393 399.5,184.5C 401.297,183.27 403.297,182.604 405.5,182.5C 411.993,169.314 418.659,156.314 425.5,143.5 Z"/></g>
<g><path style="opacity:0.129" fill="#9670d8" d="M 560.5,125.5 C 560.672,126.492 560.338,127.158 559.5,127.5C 558.222,127.218 557.222,126.551 556.5,125.5C 555.5,125.5 554.5,125.5 553.5,125.5C 553.5,150.833 553.5,176.167 553.5,201.5C 552.222,201.218 551.222,200.551 550.5,199.5C 550.5,198.833 550.5,198.167 550.5,197.5C 550.5,173.5 550.5,149.5 550.5,125.5C 549.396,123.404 550.23,122.404 553,122.5C 555.185,122.921 557.351,123.421 559.5,124C 560.056,124.383 560.389,124.883 560.5,125.5 Z"/></g>
<g><path style="opacity:1" fill="#7570db" d="M 439.5,201.5 C 435.466,203.559 431.466,205.559 427.5,207.5C 427.953,206.542 428.619,205.708 429.5,205C 429.384,203.732 429.051,202.398 428.5,201C 429.218,198.539 429.885,196.039 430.5,193.5C 429.854,187.715 429.521,181.882 429.5,176C 429.545,169.993 430.212,164.16 431.5,158.5C 429.227,155.392 428.893,152.058 430.5,148.5C 430.322,145.196 428.656,143.529 425.5,143.5C 428.415,139.883 430.415,135.717 431.5,131C 431.227,129.467 430.894,127.967 430.5,126.5C 430.5,126.167 430.5,125.833 430.5,125.5C 431.931,125.881 432.764,126.881 433,128.5C 434.045,127.627 434.878,126.627 435.5,125.5C 436.117,125.389 436.617,125.056 437,124.5C 437.419,126.68 437.252,128.846 436.5,131C 437.167,133 437.833,135 438.5,137C 437.699,155.146 437.199,173.313 437,191.5C 432.562,194.3 432.728,195.633 437.5,195.5C 437.67,196.822 437.337,197.989 436.5,199C 438.119,199.236 439.119,200.069 439.5,201.5 Z"/></g>
<g><path style="opacity:0.004" fill="#fefffe" d="M 587.5,180.5 C 585.5,180.5 583.5,180.5 581.5,180.5C 582.134,179.053 583.301,178.387 585,178.5C 586.376,178.684 587.209,179.351 587.5,180.5 Z"/></g>
<g><path style="opacity:0.007" fill="#fdfffe" d="M 580.5,181.5 C 580.5,185.5 580.5,189.5 580.5,193.5C 579.508,200.982 579.175,208.648 579.5,216.5C 578.5,216.5 577.5,216.5 576.5,216.5C 574.5,215.167 572.5,213.833 570.5,212.5C 572.389,211.678 574.389,210.845 576.5,210C 577.191,208.933 577.691,207.766 578,206.5C 578.004,197.927 578.838,189.593 580.5,181.5 Z"/></g>
<g><path style="opacity:0.004" fill="#fefffe" d="M 395.5,193.5 C 394.974,195.23 393.974,196.564 392.5,197.5C 392.088,195.027 393.088,193.694 395.5,193.5 Z"/></g>
<g><path style="opacity:1" fill="#7c7add" d="M 489.5,243.5 C 488.411,245.117 486.744,245.95 484.5,246C 485.654,246.914 485.487,247.747 484,248.5C 483.667,248.167 483.333,247.833 483,247.5C 478.006,251.399 472.84,254.233 467.5,256C 466.934,256.995 466.267,257.828 465.5,258.5C 464.282,257.839 462.949,257.172 461.5,256.5C 467.048,251.923 473.048,248.256 479.5,245.5C 479.672,243.508 479.005,241.842 477.5,240.5C 478.167,239.833 478.833,239.167 479.5,238.5C 478.585,237.672 477.919,236.672 477.5,235.5C 479.994,231.154 479.994,226.821 477.5,222.5C 476.127,222.343 474.793,222.51 473.5,223C 469.556,225.556 465.389,227.723 461,229.5C 460.167,229.333 459.333,229.167 458.5,229C 459.938,228.781 461.271,228.281 462.5,227.5C 461.282,227.891 460.448,227.224 460,225.5C 455.222,228.756 450.722,231.589 446.5,234C 442.821,234.281 439.488,235.448 436.5,237.5C 436.167,237.167 435.833,236.833 435.5,236.5C 436.167,235.833 436.833,235.167 437.5,234.5C 443.787,230.871 449.787,226.871 455.5,222.5C 453.599,222.605 451.599,221.938 449.5,220.5C 450.95,219.15 451.617,217.484 451.5,215.5C 450.178,215.67 449.011,215.337 448,214.5C 447.893,211.869 447.727,209.369 447.5,207C 444.986,205.748 442.32,205.248 439.5,205.5C 439.719,206.675 439.386,207.675 438.5,208.5C 433.484,211.374 428.484,214.041 423.5,216.5C 420.547,217.69 417.881,219.357 415.5,221.5C 413.143,221.663 410.81,221.497 408.5,221C 407.944,220.617 407.611,220.117 407.5,219.5C 408.833,218.833 410.167,218.167 411.5,217.5C 414.506,215.33 417.839,213.664 421.5,212.5C 423.641,210.796 425.641,209.13 427.5,207.5C 431.466,205.559 435.466,203.559 439.5,201.5C 439.97,202.693 440.97,203.36 442.5,203.5C 447.716,202.477 452.55,200.477 457,197.5C 460.697,196.071 462.864,197.405 463.5,201.5C 462.811,203.353 461.478,204.519 459.5,205C 464.19,206.225 465.856,209.059 464.5,213.5C 462.602,212.266 460.935,212.599 459.5,214.5C 461.931,215.36 463.264,217.027 463.5,219.5C 462.167,219.5 460.833,219.5 459.5,219.5C 459.5,220.833 459.5,222.167 459.5,223.5C 460.93,223.421 462.264,223.754 463.5,224.5C 468.03,221.594 472.53,218.594 477,215.5C 477.839,216.624 479.006,217.291 480.5,217.5C 483.618,216.441 486.618,215.108 489.5,213.5C 491.155,212.772 492.821,212.605 494.5,213C 494.043,213.414 493.709,213.914 493.5,214.5C 494.304,215.941 494.971,217.441 495.5,219C 494.167,221 494.167,223 495.5,225C 495.097,226.473 494.43,227.806 493.5,229C 495.286,232.685 494.286,236.018 490.5,239C 488.382,239.26 486.716,240.26 485.5,242C 486.563,243.188 487.897,243.688 489.5,243.5 Z"/></g>
<g><path style="opacity:0.371" fill="#876dd4" d="M 581.5,180.5 C 583.5,180.5 585.5,180.5 587.5,180.5C 589.833,180.833 591.167,182.167 591.5,184.5C 589.933,185.681 589.099,187.347 589,189.5C 588.5,200.828 588.333,212.162 588.5,223.5C 586.833,223.5 585.167,223.5 583.5,223.5C 583.667,212.162 583.5,200.828 583,189.5C 582.667,198.833 582.333,208.167 582,217.5C 580.725,209.553 580.225,201.553 580.5,193.5C 580.5,189.5 580.5,185.5 580.5,181.5C 580.5,180.833 580.833,180.5 581.5,180.5 Z"/></g>
<g><path style="opacity:1" fill="#8ba3e9" d="M 530.5,167.5 C 530.334,174.841 530.5,182.174 531,189.5C 531.708,190.381 532.542,191.047 533.5,191.5C 533.833,191.5 534.167,191.5 534.5,191.5C 534.5,191.833 534.5,192.167 534.5,192.5C 532.503,194.723 530.503,197.056 528.5,199.5C 529.711,200.874 530.711,202.374 531.5,204C 530.5,205.667 529.5,207.333 528.5,209C 529,210.5 529.5,212 530,213.5C 532.51,214.109 534.51,215.442 536,217.5C 536.615,215.884 537.615,214.551 539,213.5C 539.658,215.108 539.158,216.275 537.5,217C 539.167,217.333 540.833,217.667 542.5,218C 540.405,218.556 540.238,219.056 542,219.5C 545.055,218.389 547.888,216.889 550.5,215C 551.784,214.316 552.951,214.483 554,215.5C 554.579,217.649 555.079,219.815 555.5,222C 555.962,227.542 555.462,233.042 554,238.5C 558.03,236.639 562.53,235.139 567.5,234C 570.47,232.847 573.137,231.18 575.5,229C 577.557,228.695 579.557,228.695 581.5,229C 581.099,226.302 580.932,223.135 581,219.5C 579.69,218.103 578.19,217.103 576.5,216.5C 577.5,216.5 578.5,216.5 579.5,216.5C 579.175,208.648 579.508,200.982 580.5,193.5C 580.225,201.553 580.725,209.553 582,217.5C 582.333,208.167 582.667,198.833 583,189.5C 583.5,200.828 583.667,212.162 583.5,223.5C 585.167,223.5 586.833,223.5 588.5,223.5C 588.333,212.162 588.5,200.828 589,189.5C 589.099,187.347 589.933,185.681 591.5,184.5C 591.5,195.833 591.5,207.167 591.5,218.5C 590.093,222.809 591.76,225.476 596.5,226.5C 597.167,226.5 597.5,226.833 597.5,227.5C 597.52,229.143 596.853,230.476 595.5,231.5C 596.025,232.192 596.692,232.692 597.5,233C 593.747,234.14 593.081,235.974 595.5,238.5C 594.167,239.5 594.167,240.5 595.5,241.5C 594.975,242.192 594.308,242.692 593.5,243C 595.321,244.743 597.321,246.243 599.5,247.5C 600.386,248.325 600.719,249.325 600.5,250.5C 591.248,255.287 582.248,260.287 573.5,265.5C 573.969,264.275 573.302,263.275 571.5,262.5C 573.464,260.526 575.631,258.86 578,257.5C 578.49,256.207 578.657,254.873 578.5,253.5C 577.5,253.5 576.5,253.5 575.5,253.5C 575.762,254.978 575.429,256.311 574.5,257.5C 574.167,257.167 573.833,256.833 573.5,256.5C 574.572,254.283 575.239,251.95 575.5,249.5C 574.205,246.621 573.538,243.621 573.5,240.5C 577.624,240.284 578.124,239.284 575,237.5C 571.582,238.307 568.249,239.307 565,240.5C 564.544,239.256 565.044,238.423 566.5,238C 564.865,237.46 563.532,237.96 562.5,239.5C 561.808,238.975 561.308,238.308 561,237.5C 559.482,239.348 557.649,240.848 555.5,242C 550.584,242.648 546.417,245.148 543,249.5C 541.293,248.862 539.46,248.862 537.5,249.5C 537.449,247.43 538.115,245.597 539.5,244C 538.115,242.403 537.449,240.57 537.5,238.5C 534.679,238.684 533.012,237.351 532.5,234.5C 533.711,233.126 534.711,231.626 535.5,230C 534.427,228.584 534.427,227.25 535.5,226C 534.833,225.833 534.167,225.667 533.5,225.5C 529.641,227.588 525.641,227.921 521.5,226.5C 516.513,227.452 512.346,229.785 509,233.5C 507.927,232.72 506.76,232.887 505.5,234C 505.833,234.333 506.167,234.667 506.5,235C 504.098,235.814 501.765,235.647 499.5,234.5C 503.424,231.86 507.424,229.194 511.5,226.5C 512.906,224.974 514.072,223.307 515,221.5C 514.302,216.158 514.469,210.824 515.5,205.5C 512.689,205.429 510.022,204.762 507.5,203.5C 504.685,205.235 501.685,205.735 498.5,205C 499.056,204.617 499.389,204.117 499.5,203.5C 500.122,202.373 500.955,201.373 502,200.5C 503.84,201.833 504.34,201.666 503.5,200C 504.993,198.632 506.493,198.465 508,199.5C 509,198.167 510,196.833 511,195.5C 511.333,196.167 511.667,196.833 512,197.5C 513.044,196.377 513.71,195.044 514,193.5C 514.333,193.833 514.667,194.167 515,194.5C 520.536,191.735 522.036,187.402 519.5,181.5C 519.5,179.833 519.5,178.167 519.5,176.5C 520.283,179.509 520.95,182.676 521.5,186C 521.836,187.03 522.503,187.53 523.5,187.5C 523.47,188.497 523.97,189.164 525,189.5C 526.882,189.312 528.048,188.312 528.5,186.5C 529.091,180.015 529.757,173.681 530.5,167.5 Z"/></g>
<g><path style="opacity:0.005" fill="#fcfffe" d="M 561.5,203.5 C 564.2,205.865 566.533,208.532 568.5,211.5C 565.079,210.461 562.412,208.461 560.5,205.5C 561.338,205.158 561.672,204.492 561.5,203.5 Z"/></g>
<g><path style="opacity:0.004" fill="#eaf6f5" d="M 591.5,218.5 C 592.799,221.395 594.465,224.062 596.5,226.5C 591.76,225.476 590.093,222.809 591.5,218.5 Z"/></g>
<g><path style="opacity:1" fill="#6b4ed1" d="M 423.5,216.5 C 427.29,216.008 427.956,216.841 425.5,219C 427.167,219.833 428.833,220.667 430.5,221.5C 432.279,218.724 433.279,219.057 433.5,222.5C 433.122,224.135 432.456,225.635 431.5,227C 434.087,229.78 433.753,232.28 430.5,234.5C 429.094,233.332 427.928,233.665 427,235.5C 426.869,238.371 425.703,240.705 423.5,242.5C 419.532,244.702 415.532,246.702 411.5,248.5C 412.151,245.002 412.151,241.669 411.5,238.5C 409.5,237.833 407.5,237.167 405.5,236.5C 408.074,234.307 407.741,232.473 404.5,231C 402.866,230.506 401.199,230.34 399.5,230.5C 404.828,227.502 410.161,224.502 415.5,221.5C 417.881,219.357 420.547,217.69 423.5,216.5 Z"/></g>
<g><path style="opacity:1" fill="#683ecb" d="M 411.5,217.5 C 410.167,218.167 408.833,218.833 407.5,219.5C 399.722,223.893 392.056,228.56 384.5,233.5C 382.669,234.929 380.669,235.429 378.5,235C 381.851,227.798 385.351,220.631 389,213.5C 389.556,211.115 389.39,208.782 388.5,206.5C 388.5,206.167 388.5,205.833 388.5,205.5C 389.931,205.881 390.764,206.881 391,208.5C 391.667,207.833 392.333,207.167 393,206.5C 394.637,202.708 396.47,199.041 398.5,195.5C 399.5,193.833 400.833,192.5 402.5,191.5C 402.599,187.165 404.432,183.831 408,181.5C 410.194,184.052 412.028,186.885 413.5,190C 413.241,191.261 412.574,192.261 411.5,193C 411.657,197.749 412.324,202.916 413.5,208.5C 411.988,209.249 410.988,210.416 410.5,212C 410.591,213.814 410.925,215.647 411.5,217.5 Z"/></g>
<g><path style="opacity:0.006" fill="#fefffe" d="M 377.5,227.5 C 377.068,228.71 376.401,229.71 375.5,230.5C 375.285,228.821 375.952,227.821 377.5,227.5 Z"/></g>
<g><path style="opacity:1" fill="#90b3ee" d="M 534.5,192.5 C 534.833,192.5 535.167,192.5 535.5,192.5C 536.873,192.343 538.207,192.51 539.5,193C 539.167,193.333 538.833,193.667 538.5,194C 540.452,194.366 542.118,195.199 543.5,196.5C 545.806,199.23 548.139,199.564 550.5,197.5C 550.5,198.167 550.5,198.833 550.5,199.5C 550.769,206.328 554.102,208.328 560.5,205.5C 562.412,208.461 565.079,210.461 568.5,211.5C 569.167,211.833 569.833,212.167 570.5,212.5C 572.5,213.833 574.5,215.167 576.5,216.5C 578.19,217.103 579.69,218.103 581,219.5C 580.932,223.135 581.099,226.302 581.5,229C 579.557,228.695 577.557,228.695 575.5,229C 573.137,231.18 570.47,232.847 567.5,234C 562.53,235.139 558.03,236.639 554,238.5C 555.462,233.042 555.962,227.542 555.5,222C 555.079,219.815 554.579,217.649 554,215.5C 552.951,214.483 551.784,214.316 550.5,215C 547.888,216.889 545.055,218.389 542,219.5C 540.238,219.056 540.405,218.556 542.5,218C 540.833,217.667 539.167,217.333 537.5,217C 539.158,216.275 539.658,215.108 539,213.5C 537.615,214.551 536.615,215.884 536,217.5C 534.51,215.442 532.51,214.109 530,213.5C 529.5,212 529,210.5 528.5,209C 529.5,207.333 530.5,205.667 531.5,204C 530.711,202.374 529.711,200.874 528.5,199.5C 530.503,197.056 532.503,194.723 534.5,192.5 Z"/></g>
<g><path style="opacity:0.005" fill="#f9f9f9" d="M 375.5,231.5 C 374.404,234.032 373.071,236.365 371.5,238.5C 370.431,234.983 371.764,232.649 375.5,231.5 Z"/></g>
<g><path style="opacity:1" fill="#818be2" d="M 489.5,203.5 C 487.922,204.066 486.588,205.066 485.5,206.5C 488.369,206.317 491.036,206.651 493.5,207.5C 495.342,205.828 497.342,204.494 499.5,203.5C 499.389,204.117 499.056,204.617 498.5,205C 501.685,205.735 504.685,205.235 507.5,203.5C 510.022,204.762 512.689,205.429 515.5,205.5C 514.469,210.824 514.302,216.158 515,221.5C 514.072,223.307 512.906,224.974 511.5,226.5C 507.424,229.194 503.424,231.86 499.5,234.5C 501.765,235.647 504.098,235.814 506.5,235C 506.167,234.667 505.833,234.333 505.5,234C 506.76,232.887 507.927,232.72 509,233.5C 512.346,229.785 516.513,227.452 521.5,226.5C 525.641,227.921 529.641,227.588 533.5,225.5C 534.167,225.667 534.833,225.833 535.5,226C 534.427,227.25 534.427,228.584 535.5,230C 534.711,231.626 533.711,233.126 532.5,234.5C 533.012,237.351 534.679,238.684 537.5,238.5C 537.449,240.57 538.115,242.403 539.5,244C 538.115,245.597 537.449,247.43 537.5,249.5C 539.46,248.862 541.293,248.862 543,249.5C 546.417,245.148 550.584,242.648 555.5,242C 557.649,240.848 559.482,239.348 561,237.5C 561.308,238.308 561.808,238.975 562.5,239.5C 563.532,237.96 564.865,237.46 566.5,238C 565.044,238.423 564.544,239.256 565,240.5C 568.249,239.307 571.582,238.307 575,237.5C 578.124,239.284 577.624,240.284 573.5,240.5C 573.538,243.621 574.205,246.621 575.5,249.5C 575.239,251.95 574.572,254.283 573.5,256.5C 573.833,256.833 574.167,257.167 574.5,257.5C 575.429,256.311 575.762,254.978 575.5,253.5C 576.5,253.5 577.5,253.5 578.5,253.5C 578.657,254.873 578.49,256.207 578,257.5C 575.631,258.86 573.464,260.526 571.5,262.5C 573.302,263.275 573.969,264.275 573.5,265.5C 557.825,274.846 542.159,284.179 526.5,293.5C 525.5,292.167 524.5,290.833 523.5,289.5C 527.173,288 530.506,286 533.5,283.5C 538.658,280.42 543.991,277.587 549.5,275C 547.411,273.829 545.411,272.496 543.5,271C 544.088,265.921 544.088,260.921 543.5,256C 542.167,255.333 540.833,255.333 539.5,256C 536.732,257.715 533.732,258.882 530.5,259.5C 528.626,259.61 527.126,258.944 526,257.5C 525.676,259.569 524.842,259.902 523.5,258.5C 521.071,260.653 518.404,261.319 515.5,260.5C 517.305,258.097 519.638,256.43 522.5,255.5C 523.457,253.082 524.791,250.916 526.5,249C 526,248.5 525.5,248 525,247.5C 524.502,244.183 524.335,240.85 524.5,237.5C 522.278,237.178 520.444,237.845 519,239.5C 517.548,238.093 517.715,236.593 519.5,235C 515.147,234.528 511.48,235.861 508.5,239C 507,239.167 505.5,239.333 504,239.5C 502.019,239.371 500.353,238.704 499,237.5C 498.667,238.5 498.333,239.5 498,240.5C 496.636,239.742 495.469,240.242 494.5,242C 492.975,243.009 491.308,243.509 489.5,243.5C 487.897,243.688 486.563,243.188 485.5,242C 486.716,240.26 488.382,239.26 490.5,239C 494.286,236.018 495.286,232.685 493.5,229C 494.43,227.806 495.097,226.473 495.5,225C 494.167,223 494.167,221 495.5,219C 494.971,217.441 494.304,215.941 493.5,214.5C 493.709,213.914 494.043,213.414 494.5,213C 492.821,212.605 491.155,212.772 489.5,213.5C 486.618,215.108 483.618,216.441 480.5,217.5C 479.006,217.291 477.839,216.624 477,215.5C 472.53,218.594 468.03,221.594 463.5,224.5C 462.264,223.754 460.93,223.421 459.5,223.5C 459.5,222.167 459.5,220.833 459.5,219.5C 460.833,219.5 462.167,219.5 463.5,219.5C 463.264,217.027 461.931,215.36 459.5,214.5C 460.935,212.599 462.602,212.266 464.5,213.5C 465.856,209.059 464.19,206.225 459.5,205C 461.478,204.519 462.811,203.353 463.5,201.5C 462.864,197.405 460.697,196.071 457,197.5C 452.55,200.477 447.716,202.477 442.5,203.5C 440.97,203.36 439.97,202.693 439.5,201.5C 441.078,200.934 442.412,199.934 443.5,198.5C 442.624,197.749 441.624,197.249 440.5,197C 441.667,195.167 442.833,193.333 444,191.5C 444.667,170.167 444.667,148.833 444,127.5C 443.282,128.451 442.449,128.617 441.5,128C 444.365,125.597 444.199,124.764 441,125.5C 440.626,124.584 440.126,123.75 439.5,123C 441.604,121.164 441.938,118.998 440.5,116.5C 438.064,119.035 436.397,122.035 435.5,125.5C 434.878,126.627 434.045,127.627 433,128.5C 432.764,126.881 431.931,125.881 430.5,125.5C 432.904,118.925 436.237,112.925 440.5,107.5C 441.75,107.577 442.583,108.244 443,109.5C 445.31,106.545 446.81,103.212 447.5,99.5C 448.675,99.719 449.675,99.3857 450.5,98.5C 451.996,94.006 454.329,90.006 457.5,86.5C 457.78,88.9571 458.447,91.6238 459.5,94.5C 459.053,123.15 458.72,152.15 458.5,181.5C 458.529,183.029 459.196,184.196 460.5,185C 459.312,187.724 457.645,190.057 455.5,192C 456,192.5 456.5,193 457,193.5C 462.069,191.383 466.902,188.883 471.5,186C 474.711,185.202 477.711,185.702 480.5,187.5C 482.722,181.356 485.056,181.189 487.5,187C 486.968,189.02 485.635,189.853 483.5,189.5C 483.759,193.068 485.759,194.401 489.5,193.5C 489.78,196.272 489.113,198.772 487.5,201C 488.756,201.417 489.423,202.25 489.5,203.5 Z"/></g>
<g><path style="opacity:0.675" fill="#865fcf" d="M 388.5,206.5 C 389.39,208.782 389.556,211.115 389,213.5C 385.351,220.631 381.851,227.798 378.5,235C 380.669,235.429 382.669,234.929 384.5,233.5C 392.056,228.56 399.722,223.893 407.5,219.5C 407.611,220.117 407.944,220.617 408.5,221C 410.81,221.497 413.143,221.663 415.5,221.5C 410.161,224.502 404.828,227.502 399.5,230.5C 392.623,233.948 385.956,237.948 379.5,242.5C 384.883,246.539 390.549,250.205 396.5,253.5C 397.521,254.002 397.688,254.668 397,255.5C 395.687,254.713 394.52,255.046 393.5,256.5C 388.968,254.403 384.635,252.069 380.5,249.5C 379.71,248.599 378.71,247.932 377.5,247.5C 374.882,246.055 372.382,244.389 370,242.5C 369.7,240.934 370.2,239.601 371.5,238.5C 373.071,236.365 374.404,234.032 375.5,231.5C 375.5,231.167 375.5,230.833 375.5,230.5C 376.401,229.71 377.068,228.71 377.5,227.5C 380.928,220.308 384.595,213.308 388.5,206.5 Z"/></g>
<g><path style="opacity:1" fill="#7765d6" d="M 465.5,258.5 C 455.203,263.983 444.869,269.483 434.5,275C 435.598,275.77 435.598,276.603 434.5,277.5C 430.253,277.822 426.253,276.989 422.5,275C 416.451,269.987 410.118,265.487 403.5,261.5C 403.179,259.952 402.179,259.285 400.5,259.5C 398.315,259.296 396.315,258.63 394.5,257.5C 397.344,256.384 400.344,255.384 403.5,254.5C 406.235,252.479 408.901,250.479 411.5,248.5C 415.532,246.702 419.532,244.702 423.5,242.5C 425.703,240.705 426.869,238.371 427,235.5C 427.928,233.665 429.094,233.332 430.5,234.5C 433.753,232.28 434.087,229.78 431.5,227C 432.456,225.635 433.122,224.135 433.5,222.5C 433.279,219.057 432.279,218.724 430.5,221.5C 428.833,220.667 427.167,219.833 425.5,219C 427.956,216.841 427.29,216.008 423.5,216.5C 428.484,214.041 433.484,211.374 438.5,208.5C 439.386,207.675 439.719,206.675 439.5,205.5C 442.32,205.248 444.986,205.748 447.5,207C 447.727,209.369 447.893,211.869 448,214.5C 449.011,215.337 450.178,215.67 451.5,215.5C 451.617,217.484 450.95,219.15 449.5,220.5C 451.599,221.938 453.599,222.605 455.5,222.5C 449.787,226.871 443.787,230.871 437.5,234.5C 436.833,235.167 436.167,235.833 435.5,236.5C 435.833,236.833 436.167,237.167 436.5,237.5C 439.488,235.448 442.821,234.281 446.5,234C 450.722,231.589 455.222,228.756 460,225.5C 460.448,227.224 461.282,227.891 462.5,227.5C 461.271,228.281 459.938,228.781 458.5,229C 459.333,229.167 460.167,229.333 461,229.5C 465.389,227.723 469.556,225.556 473.5,223C 474.793,222.51 476.127,222.343 477.5,222.5C 479.994,226.821 479.994,231.154 477.5,235.5C 477.919,236.672 478.585,237.672 479.5,238.5C 478.833,239.167 478.167,239.833 477.5,240.5C 479.005,241.842 479.672,243.508 479.5,245.5C 473.048,248.256 467.048,251.923 461.5,256.5C 462.949,257.172 464.282,257.839 465.5,258.5 Z"/></g>
<g><path style="opacity:0.308" fill="#9ac0f1" d="M 597.5,227.5 C 602.473,230.321 607.473,233.155 612.5,236C 615.859,238.034 616.192,240.368 613.5,243C 609.139,245.512 604.806,248.012 600.5,250.5C 600.719,249.325 600.386,248.325 599.5,247.5C 597.321,246.243 595.321,244.743 593.5,243C 594.308,242.692 594.975,242.192 595.5,241.5C 594.167,240.5 594.167,239.5 595.5,238.5C 593.081,235.974 593.747,234.14 597.5,233C 596.692,232.692 596.025,232.192 595.5,231.5C 596.853,230.476 597.52,229.143 597.5,227.5 Z"/></g>
<g><path style="opacity:1" fill="#6739cb" d="M 399.5,230.5 C 401.199,230.34 402.866,230.506 404.5,231C 407.741,232.473 408.074,234.307 405.5,236.5C 407.5,237.167 409.5,237.833 411.5,238.5C 412.151,241.669 412.151,245.002 411.5,248.5C 408.901,250.479 406.235,252.479 403.5,254.5C 400.344,255.384 397.344,256.384 394.5,257.5C 393.833,257.5 393.5,257.167 393.5,256.5C 394.52,255.046 395.687,254.713 397,255.5C 397.688,254.668 397.521,254.002 396.5,253.5C 390.549,250.205 384.883,246.539 379.5,242.5C 385.956,237.948 392.623,233.948 399.5,230.5 Z"/></g>
<g><path style="opacity:0.005" fill="#fefffe" d="M 377.5,247.5 C 378.71,247.932 379.71,248.599 380.5,249.5C 378.821,249.715 377.821,249.048 377.5,247.5 Z"/></g>
<g><path style="opacity:1" fill="#7870da" d="M 533.5,283.5 C 531.965,281.948 530.131,280.615 528,279.5C 527.51,278.207 527.343,276.873 527.5,275.5C 529.59,275.55 530.923,274.55 531.5,272.5C 530.811,270.556 530.311,268.556 530,266.5C 529.667,266.833 529.333,267.167 529,267.5C 528.592,265.59 527.425,264.59 525.5,264.5C 521.613,266.026 517.78,267.693 514,269.5C 513.5,269.333 513,269.167 512.5,269C 513.308,268.692 513.975,268.192 514.5,267.5C 510.721,265.908 507.721,266.908 505.5,270.5C 504.549,269.674 503.549,269.508 502.5,270C 503.833,270.667 503.833,271.333 502.5,272C 499.358,273.475 496.525,275.308 494,277.5C 492.327,275.083 490.494,275.083 488.5,277.5C 488.167,277.167 487.833,276.833 487.5,276.5C 488.833,275.167 490.167,273.833 491.5,272.5C 495.165,271.003 498.498,269.003 501.5,266.5C 500.311,265.571 498.978,265.238 497.5,265.5C 496.987,260.915 497.654,256.582 499.5,252.5C 497.468,250.802 495.802,248.802 494.5,246.5C 487.46,250.565 480.46,254.565 473.5,258.5C 470.691,259.8 468.024,259.8 465.5,258.5C 466.267,257.828 466.934,256.995 467.5,256C 472.84,254.233 478.006,251.399 483,247.5C 483.333,247.833 483.667,248.167 484,248.5C 485.487,247.747 485.654,246.914 484.5,246C 486.744,245.95 488.411,245.117 489.5,243.5C 491.308,243.509 492.975,243.009 494.5,242C 495.469,240.242 496.636,239.742 498,240.5C 498.333,239.5 498.667,238.5 499,237.5C 500.353,238.704 502.019,239.371 504,239.5C 505.5,239.333 507,239.167 508.5,239C 511.48,235.861 515.147,234.528 519.5,235C 517.715,236.593 517.548,238.093 519,239.5C 520.444,237.845 522.278,237.178 524.5,237.5C 524.335,240.85 524.502,244.183 525,247.5C 525.5,248 526,248.5 526.5,249C 524.791,250.916 523.457,253.082 522.5,255.5C 519.638,256.43 517.305,258.097 515.5,260.5C 518.404,261.319 521.071,260.653 523.5,258.5C 524.842,259.902 525.676,259.569 526,257.5C 527.126,258.944 528.626,259.61 530.5,259.5C 533.732,258.882 536.732,257.715 539.5,256C 540.833,255.333 542.167,255.333 543.5,256C 544.088,260.921 544.088,265.921 543.5,271C 545.411,272.496 547.411,273.829 549.5,275C 543.991,277.587 538.658,280.42 533.5,283.5 Z"/></g>
<g><path style="opacity:0.004" fill="#fefffe" d="M 400.5,259.5 C 402.179,259.285 403.179,259.952 403.5,261.5C 401.973,261.573 400.973,260.906 400.5,259.5 Z"/></g>
<g><path style="opacity:1" fill="#683dcc" d="M 453.5,234.5 C 457.876,233.888 458.543,235.054 455.5,238C 454.5,238.333 453.5,238.667 452.5,239C 453.639,244.416 453.806,249.916 453,255.5C 450.904,256.715 451.071,257.549 453.5,258C 446.763,264.575 439.096,269.741 430.5,273.5C 423.506,269.176 416.506,264.842 409.5,260.5C 409.833,259.833 410.167,259.167 410.5,258.5C 424.927,250.346 439.26,242.346 453.5,234.5 Z"/></g>
<g><path style="opacity:1" fill="#7358d3" d="M 533.5,283.5 C 530.506,286 527.173,288 523.5,289.5C 517.623,292.6 511.956,295.934 506.5,299.5C 504.25,296.07 505.25,293.236 509.5,291C 508.5,290.167 507.5,289.333 506.5,288.5C 506.67,284.682 506.67,280.682 506.5,276.5C 504.801,276.34 503.134,276.506 501.5,277C 490.804,283.013 480.137,289.013 469.5,295C 473.742,297.61 477.742,300.443 481.5,303.5C 479.385,303.066 476.718,303.066 473.5,303.5C 471.178,301.336 468.511,299.669 465.5,298.5C 462.887,296.282 459.887,294.615 456.5,293.5C 456.027,292.094 455.027,291.427 453.5,291.5C 450.193,289.847 446.86,288.18 443.5,286.5C 443.027,285.094 442.027,284.427 440.5,284.5C 440.167,284.5 439.833,284.5 439.5,284.5C 439.19,282.856 438.19,281.856 436.5,281.5C 434.896,280.713 434.229,279.38 434.5,277.5C 435.598,276.603 435.598,275.77 434.5,275C 444.869,269.483 455.203,263.983 465.5,258.5C 468.024,259.8 470.691,259.8 473.5,258.5C 480.46,254.565 487.46,250.565 494.5,246.5C 495.802,248.802 497.468,250.802 499.5,252.5C 497.654,256.582 496.987,260.915 497.5,265.5C 498.978,265.238 500.311,265.571 501.5,266.5C 498.498,269.003 495.165,271.003 491.5,272.5C 490.167,273.833 488.833,275.167 487.5,276.5C 487.833,276.833 488.167,277.167 488.5,277.5C 490.494,275.083 492.327,275.083 494,277.5C 496.525,275.308 499.358,273.475 502.5,272C 503.833,271.333 503.833,270.667 502.5,270C 503.549,269.508 504.549,269.674 505.5,270.5C 507.721,266.908 510.721,265.908 514.5,267.5C 513.975,268.192 513.308,268.692 512.5,269C 513,269.167 513.5,269.333 514,269.5C 517.78,267.693 521.613,266.026 525.5,264.5C 527.425,264.59 528.592,265.59 529,267.5C 529.333,267.167 529.667,266.833 530,266.5C 530.311,268.556 530.811,270.556 531.5,272.5C 530.923,274.55 529.59,275.55 527.5,275.5C 527.343,276.873 527.51,278.207 528,279.5C 530.131,280.615 531.965,281.948 533.5,283.5 Z"/></g>
<g><path style="opacity:1" fill="#673dcc" d="M 467.5,261.5 C 470.652,262.957 473.985,263.957 477.5,264.5C 477.703,266.39 477.037,267.89 475.5,269C 475.788,271.238 477.122,273.071 479.5,274.5C 479,274.833 478.5,275.167 478,275.5C 475.572,273.259 473.072,273.092 470.5,275C 471.729,276.529 473.229,277.696 475,278.5C 475.494,280.134 475.66,281.801 475.5,283.5C 470.866,285.481 466.199,287.481 461.5,289.5C 453.893,286.363 446.56,282.696 439.5,278.5C 439.977,277.522 440.643,276.689 441.5,276C 450.745,271.885 459.412,267.052 467.5,261.5 Z"/></g>
<g><path style="opacity:0.004" fill="#f2f2f2" d="M 436.5,281.5 C 438.19,281.856 439.19,282.856 439.5,284.5C 437.5,284.5 436.5,283.5 436.5,281.5 Z"/></g>
<g><path style="opacity:0.004" fill="#edebff" d="M 440.5,284.5 C 442.027,284.427 443.027,285.094 443.5,286.5C 441.973,286.573 440.973,285.906 440.5,284.5 Z"/></g>
<g><path style="opacity:1" fill="#6638ca" d="M 506.5,299.5 C 501.536,302.565 496.369,305.232 491,307.5C 487.912,306.041 484.745,304.708 481.5,303.5C 477.742,300.443 473.742,297.61 469.5,295C 480.137,289.013 490.804,283.013 501.5,277C 503.134,276.506 504.801,276.34 506.5,276.5C 506.67,280.682 506.67,284.682 506.5,288.5C 507.5,289.333 508.5,290.167 509.5,291C 505.25,293.236 504.25,296.07 506.5,299.5 Z"/></g>
<g><path style="opacity:0.004" fill="#e2e1f0" d="M 453.5,291.5 C 455.027,291.427 456.027,292.094 456.5,293.5C 454.973,293.573 453.973,292.906 453.5,291.5 Z"/></g>
<g><path style="opacity:0.608" fill="#876ad6" d="M 523.5,289.5 C 524.5,290.833 525.5,292.167 526.5,293.5C 517.72,298.44 509.053,303.607 500.5,309C 497.397,310.367 494.23,311.534 491,312.5C 484.126,311.281 478.293,308.281 473.5,303.5C 476.718,303.066 479.385,303.066 481.5,303.5C 484.745,304.708 487.912,306.041 491,307.5C 496.369,305.232 501.536,302.565 506.5,299.5C 511.956,295.934 517.623,292.6 523.5,289.5 Z"/></g>
<g><path style="opacity:0.005" fill="#f3f3f7" d="M 465.5,298.5 C 468.511,299.669 471.178,301.336 473.5,303.5C 470.197,302.849 467.53,301.182 465.5,298.5 Z"/></g>
<g><path style="opacity:0.202" fill="#3f3f3f" d="M 341.5,418.5 C 354.193,416.924 363.026,421.924 368,433.5C 371.151,447.43 366.318,457.263 353.5,463C 339.584,465.078 330.084,459.578 325,446.5C 323.088,432.64 328.588,423.307 341.5,418.5 Z"/></g>
<g><path style="opacity:1" fill="#030303" d="M 343.5,422.5 C 359.874,423.047 366.374,431.381 363,447.5C 357.546,457.472 349.379,460.638 338.5,457C 329.172,449.978 327.006,441.145 332,430.5C 334.961,426.34 338.795,423.673 343.5,422.5 Z"/></g>
<g><path style="opacity:0.677" fill="#3e3e3e" d="M 585.5,483.5 C 584.2,486.024 584.2,488.691 585.5,491.5C 586.107,491.376 586.44,491.043 586.5,490.5C 592.902,483.298 600.902,478.798 610.5,477C 643.371,470.572 662.538,483.738 668,516.5C 669.576,547.145 669.909,577.812 669,608.5C 668.768,611.738 667.268,614.238 664.5,616C 656.939,617.598 649.272,617.931 641.5,617C 635.793,614.594 633.127,610.261 633.5,604C 633.916,586.161 634.249,568.328 634.5,550.5C 634.565,540.463 634.065,530.463 633,520.5C 631.02,511.021 625.187,506.021 615.5,505.5C 600.626,508.51 590.793,517.177 586,531.5C 585.667,556.833 585.333,582.167 585,607.5C 584.177,611.664 582.01,614.831 578.5,617C 571.167,617.667 563.833,617.667 556.5,617C 553.572,615.74 551.739,613.573 551,610.5C 550.333,544.167 550.333,477.833 551,411.5C 553.136,407.283 556.636,405.283 561.5,405.5C 567.912,405.867 574.245,406.367 580.5,407C 582.049,408.214 583.215,409.714 584,411.5C 585.47,435.435 585.97,459.435 585.5,483.5 Z"/></g>
<g><path style="opacity:1" fill="#030303" d="M 557.5,409.5 C 563.842,409.334 570.175,409.5 576.5,410C 578,410.833 579.167,412 580,413.5C 580.5,442.498 580.667,471.498 580.5,500.5C 581.552,500.649 582.552,500.483 583.5,500C 598.473,481.871 617.473,475.871 640.5,482C 655.86,490.535 663.693,503.701 664,521.5C 664.984,551.253 664.65,580.919 663,610.5C 662.097,611.701 660.931,612.535 659.5,613C 654.167,613.667 648.833,613.667 643.5,613C 641.757,611.89 640.424,610.39 639.5,608.5C 638.833,578.5 638.167,548.5 637.5,518.5C 632.013,502.365 621.013,497.199 604.5,503C 592.322,508.851 584.489,518.351 581,531.5C 580.667,557.167 580.333,582.833 580,608.5C 579.363,610.303 578.197,611.636 576.5,612.5C 570.528,613.664 564.528,613.83 558.5,613C 557.213,611.59 556.046,610.09 555,608.5C 554.333,543.5 554.333,478.5 555,413.5C 555.662,412.016 556.496,410.683 557.5,409.5 Z"/></g>
<g><path style="opacity:0.004" fill="#fefffe" d="M 585.5,483.5 C 585.198,486.059 585.532,488.393 586.5,490.5C 586.44,491.043 586.107,491.376 585.5,491.5C 584.2,488.691 584.2,486.024 585.5,483.5 Z"/></g>
<g><path style="opacity:0.582" fill="#373737" d="M 857.5,444.5 C 863.176,444.334 868.843,444.501 874.5,445C 875.931,445.465 877.097,446.299 878,447.5C 879.445,456.726 879.945,466.06 879.5,475.5C 891.562,475.085 903.562,475.585 915.5,477C 917,477.833 918.167,479 919,480.5C 919.667,487.167 919.667,493.833 919,500.5C 918.167,502.667 916.667,504.167 914.5,505C 902.838,505.5 891.171,505.667 879.5,505.5C 879.333,530.502 879.5,555.502 880,580.5C 881.57,586.377 885.403,588.544 891.5,587C 897.519,585.158 903.185,582.492 908.5,579C 914.951,576.822 919.118,578.989 921,585.5C 923.962,590.638 924.628,595.971 923,601.5C 912.177,612.491 899.011,617.824 883.5,617.5C 862.368,618.044 849.868,608.044 846,587.5C 845.5,560.169 845.333,532.835 845.5,505.5C 840.464,505.938 835.631,505.272 831,503.5C 830.088,501.341 829.255,499.175 828.5,497C 829.3,492.92 829.8,488.753 830,484.5C 830.833,483.667 831.667,482.833 832.5,482C 837.383,480.754 842.216,479.254 847,477.5C 848.464,467.716 850.464,458.049 853,448.5C 854.397,446.93 855.897,445.596 857.5,444.5 Z"/></g>
<g><path style="opacity:1" fill="#020202" d="M 858.5,448.5 C 863.179,448.334 867.845,448.501 872.5,449C 873,449.5 873.5,450 874,450.5C 874.333,459.5 874.667,468.5 875,477.5C 875.5,478 876,478.5 876.5,479C 888.5,479.333 900.5,479.667 912.5,480C 913,480.5 913.5,481 914,481.5C 914.667,487.167 914.667,492.833 914,498.5C 913.5,499 913,499.5 912.5,500C 900.833,500.333 889.167,500.667 877.5,501C 876.333,501.5 875.5,502.333 875,503.5C 874.333,529.167 874.333,554.833 875,580.5C 876.039,588.214 880.372,591.88 888,591.5C 895.822,591.163 902.655,588.33 908.5,583C 910.81,582.503 913.143,582.337 915.5,582.5C 916.16,586.313 917.326,589.979 919,593.5C 919.667,595.167 919.667,596.833 919,598.5C 904.421,611.463 887.587,615.63 868.5,611C 857.773,605.389 851.607,596.555 850,584.5C 849.667,556.833 849.333,529.167 849,501.5C 844.586,500.697 840.086,500.197 835.5,500C 833.941,498.004 833.274,495.671 833.5,493C 833.274,490.329 833.941,487.996 835.5,486C 839.5,485 843.5,484 847.5,483C 848.931,482.535 850.097,481.701 851,480.5C 852.929,471.208 854.595,461.874 856,452.5C 857.095,451.307 857.928,449.973 858.5,448.5 Z"/></g>
<g><path style="opacity:0.542" fill="#3a3a3a" d="M 457.5,475.5 C 477.009,473.153 494.176,478.153 509,490.5C 517.559,501.165 520.559,513.165 518,526.5C 516.073,531.428 512.573,534.594 507.5,536C 491.977,539.344 484.477,533.177 485,517.5C 482.705,509.924 477.538,506.091 469.5,506C 455.375,504.982 445.875,511.149 441,524.5C 434.249,542.984 435.915,560.65 446,577.5C 454.296,586.303 464.463,589.469 476.5,587C 480.249,586.292 483.916,585.292 487.5,584C 492.965,580.518 498.799,577.685 505,575.5C 511.96,577.127 516.293,581.46 518,588.5C 518.738,592.261 518.405,595.928 517,599.5C 511.095,606.203 503.928,611.036 495.5,614C 471.147,622.929 448.147,620.262 426.5,606C 405.752,586.737 397.585,562.904 402,534.5C 406.706,501.633 425.206,481.966 457.5,475.5 Z"/></g>
<g><path style="opacity:1" fill="#020202" d="M 455.5,480.5 C 465.87,480.274 476.203,480.774 486.5,482C 500.71,486.545 509.877,496.045 514,510.5C 516.842,528.66 509.508,534.993 492,529.5C 492.987,518.083 488.82,509.25 479.5,503C 457.278,497.026 442.444,504.86 435,526.5C 430.591,544.235 432.257,561.235 440,577.5C 450.375,590.736 463.875,595.236 480.5,591C 488.583,587.794 496.583,584.294 504.5,580.5C 511.539,582.986 514.372,587.986 513,595.5C 511.542,597.96 509.709,600.127 507.5,602C 485.418,614.718 462.418,616.718 438.5,608C 416.742,594.426 406.076,574.759 406.5,549C 404.26,521.675 414.593,500.675 437.5,486C 443.475,483.84 449.475,482.006 455.5,480.5 Z"/></g>
<g><path style="opacity:0.71" fill="#393939" d="M 70.5,429.5 C 77.8409,429.334 85.1742,429.5 92.5,430C 96.1121,430.889 98.6121,433.055 100,436.5C 110.593,484.136 120.927,531.803 131,579.5C 134.211,570.202 137.211,560.869 140,551.5C 147.667,517.168 155.333,482.835 163,448.5C 164.5,444.333 167.333,441.5 171.5,440C 180.5,439.333 189.5,439.333 198.5,440C 201.295,441.793 203.795,443.96 206,446.5C 210.649,460.029 214.982,473.695 219,487.5C 226.365,518.626 234.198,549.626 242.5,580.5C 257.437,535.785 265.271,489.785 266,442.5C 265.76,436.189 268.593,432.023 274.5,430C 280.833,429.333 287.167,429.333 293.5,430C 297.896,430.73 300.73,433.23 302,437.5C 302.667,448.167 302.667,458.833 302,469.5C 296.244,512.949 285.91,555.282 271,596.5C 263.984,615.593 250.484,622.426 230.5,617C 222.026,613.859 216.192,608.026 213,599.5C 203.88,562.911 194.88,526.245 186,489.5C 181.134,514.627 175.801,539.627 170,564.5C 165.466,578.953 160.466,593.286 155,607.5C 152.28,612.551 148.113,615.718 142.5,617C 134.167,617.667 125.833,617.667 117.5,617C 112.451,615.283 108.618,612.116 106,607.5C 104.472,604.583 103.139,601.583 102,598.5C 89.1683,546.004 76.335,493.504 63.5,441C 63.6066,435.743 65.9399,431.91 70.5,429.5 Z"/></g>
<g><path style="opacity:1" fill="#020202" d="M 71.5,433.5 C 78.5079,433.334 85.5079,433.5 92.5,434C 93.3333,434.833 94.1667,435.667 95,436.5C 106.686,486.928 117.352,537.594 127,588.5C 129.267,589.935 131.267,589.602 133,587.5C 146.764,544.575 157.431,500.909 165,456.5C 165.889,451.944 168.056,448.111 171.5,445C 179.73,443.396 188.063,443.063 196.5,444C 199.333,445.5 201.5,447.667 203,450.5C 215.914,495.974 227.914,541.64 239,587.5C 240.916,590.033 242.916,590.033 245,587.5C 251.438,567.923 257.105,548.256 262,528.5C 267.127,498.369 270.46,468.035 272,437.5C 275.575,434.034 279.908,432.7 285,433.5C 289.661,433.167 293.661,434.5 297,437.5C 297.667,447.167 297.667,456.833 297,466.5C 292.046,510.79 281.712,553.79 266,595.5C 258.249,614.08 245.082,618.914 226.5,610C 224.333,607.833 222.167,605.667 220,603.5C 219.261,599.615 217.927,595.948 216,592.5C 206.443,553.775 197.109,515.108 188,476.5C 184.868,473.544 182.868,474.21 182,478.5C 176.303,521.01 166.303,562.344 152,602.5C 149.481,608.003 145.315,611.503 139.5,613C 130.749,614.442 122.416,613.442 114.5,610C 112.212,607.257 110.045,604.423 108,601.5C 97.6707,560.85 87.3373,520.183 77,479.5C 74.6789,468.489 72.0123,457.489 69,446.5C 67.7428,441.617 68.5761,437.284 71.5,433.5 Z"/></g>
<g><path style="opacity:0.479" fill="#393939" d="M 745.5,475.5 C 791.527,476.035 812.694,499.368 809,545.5C 808.16,551.584 806.993,557.584 805.5,563.5C 810.552,577.261 813.886,591.427 815.5,606C 816.219,610.464 814.886,614.131 811.5,617C 803.728,617.931 796.061,617.598 788.5,616C 786.131,611.862 784.631,607.362 784,602.5C 775.992,610.088 766.492,614.921 755.5,617C 733.503,620.782 715.336,614.282 701,597.5C 691.085,580.408 691.752,563.741 703,547.5C 719.293,532.495 738.46,527.328 760.5,532C 766.541,533.29 772.208,535.456 777.5,538.5C 778.974,528.422 776.307,519.589 769.5,512C 756.247,504.198 742.581,503.531 728.5,510C 713.386,520.782 704.719,516.782 702.5,498C 702.234,494.703 703.234,491.87 705.5,489.5C 717.285,480.55 730.619,475.883 745.5,475.5 Z M 745.5,558.5 C 755.766,558.266 764.6,561.599 772,568.5C 774.991,576.857 772.491,583.023 764.5,587C 753.895,593.3 743.561,592.967 733.5,586C 726.155,571.878 730.155,562.711 745.5,558.5 Z"/></g>
<g><path style="opacity:1" fill="#020202" d="M 738.5,479.5 C 764.381,475.281 784.547,483.948 799,505.5C 805.814,524.171 806.314,543.004 800.5,562C 804.667,573.52 807.833,585.353 810,597.5C 810.667,602.167 810.667,606.833 810,611.5C 809.5,612 809,612.5 808.5,613C 803.167,613.667 797.833,613.667 792.5,613C 790.533,606.537 788.533,600.037 786.5,593.5C 782.366,597.462 778.033,601.295 773.5,605C 752.261,617.099 731.594,616.099 711.5,602C 699.568,590.098 696.068,575.931 701,559.5C 709.994,542.165 724.328,534.165 744,535.5C 750.535,535.567 757.035,536.067 763.5,537C 769.167,539.833 774.833,542.667 780.5,545.5C 781.799,544.91 782.632,543.91 783,542.5C 785.193,515.867 773.027,501.867 746.5,500.5C 735.277,501.936 724.777,505.602 715,511.5C 713.395,510.899 712.062,509.899 711,508.5C 709.097,505.192 707.597,501.692 706.5,498C 706.858,495.968 707.692,494.134 709,492.5C 713.247,489.292 717.747,486.458 722.5,484C 727.862,482.376 733.196,480.876 738.5,479.5 Z M 745.5,558.5 C 730.155,562.711 726.155,571.878 733.5,586C 743.561,592.967 753.895,593.3 764.5,587C 772.491,583.023 774.991,576.857 772,568.5C 764.6,561.599 755.766,558.266 745.5,558.5 Z"/></g>
<g><path style="opacity:0.6" fill="#343434" d="M 739.5,554.5 C 750.271,553.072 760.271,554.906 769.5,560C 781.111,568.938 781.444,578.271 770.5,588C 759.489,595.99 747.489,597.657 734.5,593C 719.786,577.911 721.453,565.078 739.5,554.5 Z M 745.5,558.5 C 730.155,562.711 726.155,571.878 733.5,586C 743.561,592.967 753.895,593.3 764.5,587C 772.491,583.023 774.991,576.857 772,568.5C 764.6,561.599 755.766,558.266 745.5,558.5 Z"/></g>
<g><path style="opacity:0.341" fill="#353535" d="M 337.5,475.5 C 344.921,475.109 352.254,475.609 359.5,477C 361.049,478.214 362.215,479.714 363,481.5C 363.333,515.167 363.667,548.833 364,582.5C 364.309,583.766 364.809,584.933 365.5,586C 370.5,586.333 375.5,586.667 380.5,587C 384.211,591.637 386.878,596.804 388.5,602.5C 387.361,605.947 385.361,608.781 382.5,611C 369.649,618.396 356.316,619.396 342.5,614C 336.755,609.908 332.922,604.408 331,597.5C 329.364,559.205 329.031,520.872 330,482.5C 331.211,478.666 333.711,476.333 337.5,475.5 Z"/></g>
<g><path style="opacity:1" fill="#020202" d="M 337.5,479.5 C 343.842,479.334 350.175,479.5 356.5,480C 357.126,480.75 357.626,481.584 358,482.5C 358.333,516.167 358.667,549.833 359,583.5C 359.536,585.869 360.703,587.869 362.5,589.5C 367.467,590.329 372.467,590.829 377.5,591C 379.896,594.293 381.896,597.793 383.5,601.5C 380.85,606.33 376.85,609.497 371.5,611C 350.074,617.853 337.574,610.353 334,588.5C 333.333,553.5 333.333,518.5 334,483.5C 335.376,482.295 336.542,480.962 337.5,479.5 Z"/></g>
<g><path style="opacity:0.007" fill="#fefefe" d="M 931.5,737.5 C 887.833,737.5 844.167,737.5 800.5,737.5C 779.167,737.5 757.833,737.5 736.5,737.5C 677.833,737.5 619.167,737.5 560.5,737.5C 512.167,737.5 463.833,737.5 415.5,737.5C 385.5,737.5 355.5,737.5 325.5,737.5C 293.833,737.5 262.167,737.5 230.5,737.5C 171.167,737.5 111.833,737.5 52.5,737.5C 292.008,736.829 531.675,736.162 771.5,735.5C 814.717,736.661 857.884,736.661 901,735.5C 911.308,736.133 921.475,736.799 931.5,737.5 Z"/></g>
<g><path style="opacity:0.34" fill="#9898e9" d="M 415.5,737.5 C 463.833,737.5 512.167,737.5 560.5,737.5C 560.5,738.5 560.5,739.5 560.5,740.5C 586.852,740.17 613.186,740.67 639.5,742C 586.184,743.666 532.851,744.666 479.5,745C 477.618,745.198 475.952,745.698 474.5,746.5C 428.167,746.5 381.833,746.5 335.5,746.5C 341.167,745.833 346.833,745.167 352.5,744.5C 405.528,744.841 458.528,743.841 511.5,741.5C 477.505,740.494 443.505,739.661 409.5,739C 411.708,738.809 413.708,738.309 415.5,737.5 Z"/></g>
<g><path style="opacity:0.42" fill="#8d6ad9" d="M 52.5,737.5 C 111.833,737.5 171.167,737.5 230.5,737.5C 212.338,738.332 194.005,738.832 175.5,739C 218.335,739.167 261.002,739.667 303.5,740.5C 335.502,740.333 367.502,740.5 399.5,741C 378.011,741.945 356.678,742.778 335.5,743.5C 334.167,743.5 332.833,743.5 331.5,743.5C 238.835,744.263 146.169,744.596 53.5,744.5C 53.5979,742.447 52.9313,740.78 51.5,739.5C 51.3284,738.508 51.6618,737.842 52.5,737.5 Z"/></g>
<g><path style="opacity:0.77" fill="#8f7be0" d="M 230.5,737.5 C 262.167,737.5 293.833,737.5 325.5,737.5C 324.048,738.302 322.382,738.802 320.5,739C 347.167,739.333 373.833,739.667 400.5,740C 411.597,740.044 422.597,740.711 433.5,742C 400.92,743.486 368.254,743.986 335.5,743.5C 356.678,742.778 378.011,741.945 399.5,741C 367.502,740.5 335.502,740.333 303.5,740.5C 261.002,739.667 218.335,739.167 175.5,739C 194.005,738.832 212.338,738.332 230.5,737.5 Z"/></g>
<g><path style="opacity:0.652" fill="#a3c1f6" d="M 736.5,737.5 C 757.833,737.5 779.167,737.5 800.5,737.5C 798.031,738.317 795.365,738.817 792.5,739C 805.494,739.905 818.494,740.738 831.5,741.5C 829.922,742.298 828.256,742.798 826.5,743C 799.844,744.047 773.177,744.714 746.5,745C 747.056,745.383 747.389,745.883 747.5,746.5C 721.833,746.5 696.167,746.5 670.5,746.5C 691.808,744.511 713.474,743.844 735.5,744.5C 737.434,741.728 736.767,739.895 733.5,739C 734.737,738.768 735.737,738.268 736.5,737.5 Z"/></g>
<g><path style="opacity:0.922" fill="#a6cff9" d="M 800.5,737.5 C 844.167,737.5 887.833,737.5 931.5,737.5C 931.833,737.5 932.167,737.5 932.5,737.5C 932.739,739.467 932.406,741.301 931.5,743C 887.996,743.849 844.663,745.015 801.5,746.5C 783.5,746.5 765.5,746.5 747.5,746.5C 747.389,745.883 747.056,745.383 746.5,745C 773.177,744.714 799.844,744.047 826.5,743C 828.256,742.798 829.922,742.298 831.5,741.5C 818.494,740.738 805.494,739.905 792.5,739C 795.365,738.817 798.031,738.317 800.5,737.5 Z"/></g>
<g><path style="opacity:1" fill="#7853cc" d="M 303.5,740.5 C 287.865,742.321 271.865,743.155 255.5,743C 188.834,743.5 122.167,743.667 55.5,743.5C 55.5,742.5 55.5,741.5 55.5,740.5C 138.167,740.5 220.833,740.5 303.5,740.5 Z"/></g>
<g><path style="opacity:1" fill="#8b83de" d="M 325.5,737.5 C 355.5,737.5 385.5,737.5 415.5,737.5C 413.708,738.309 411.708,738.809 409.5,739C 443.505,739.661 477.505,740.494 511.5,741.5C 458.528,743.841 405.528,744.841 352.5,744.5C 345.313,744.825 338.313,744.491 331.5,743.5C 332.833,743.5 334.167,743.5 335.5,743.5C 368.254,743.986 400.92,743.486 433.5,742C 422.597,740.711 411.597,740.044 400.5,740C 373.833,739.667 347.167,739.333 320.5,739C 322.382,738.802 324.048,738.302 325.5,737.5 Z"/></g>
<g><path style="opacity:0.912" fill="#a0b0f2" d="M 560.5,737.5 C 619.167,737.5 677.833,737.5 736.5,737.5C 735.737,738.268 734.737,738.768 733.5,739C 736.767,739.895 737.434,741.728 735.5,744.5C 713.474,743.844 691.808,744.511 670.5,746.5C 605.167,746.5 539.833,746.5 474.5,746.5C 475.952,745.698 477.618,745.198 479.5,745C 532.851,744.666 586.184,743.666 639.5,742C 613.186,740.67 586.852,740.17 560.5,740.5C 560.5,739.5 560.5,738.5 560.5,737.5 Z"/></g>
<g><path style="opacity:0.299" fill="#bbe3ff" d="M 932.5,737.5 C 934.388,739.988 935.055,742.988 934.5,746.5C 890.167,746.5 845.833,746.5 801.5,746.5C 844.663,745.015 887.996,743.849 931.5,743C 932.406,741.301 932.739,739.467 932.5,737.5 Z"/></g>
<g><path style="opacity:0.224" fill="#a68bec" d="M 51.5,739.5 C 52.9313,740.78 53.5979,742.447 53.5,744.5C 146.169,744.596 238.835,744.263 331.5,743.5C 338.313,744.491 345.313,744.825 352.5,744.5C 346.833,745.167 341.167,745.833 335.5,746.5C 240.833,746.667 146.166,746.5 51.5,746C 50.8333,745.333 50.1667,744.667 49.5,744C 50.8333,743 50.8333,742 49.5,741C 50.0442,740.283 50.7109,739.783 51.5,739.5 Z"/></g>
</svg>
