<svg xmlns="http://www.w3.org/2000/svg" xmlns:xlink="http://www.w3.org/1999/xlink" contentStyleType="text/css" data-diagram-type="DESCRIPTION" height="845px" preserveAspectRatio="none" style="width:1519px;height:845px;background:#FFFFFF;" version="1.1" viewBox="0 0 1519 845" width="1519px" zoomAndPan="magnify"><defs/><g><!--entity user--><g class="entity" data-entity="user" data-source-line="1" data-uid="ent0002" id="entity_user"><ellipse cx="525.1227" cy="14" fill="#F1F1F1" rx="8" ry="8" style="stroke:#181818;stroke-width:0.5;"/><path d="M525.1227,22 L525.1227,49 M512.1227,30 L538.1227,30 M525.1227,49 L512.1227,64 M525.1227,49 L538.1227,64 " fill="none" style="stroke:#181818;stroke-width:0.5;"/><text fill="#000000" font-family="sans-serif" font-size="14" lengthAdjust="spacing" textLength="43.5654" x="503.34" y="78.4951">Player</text></g><!--entity admin--><g class="entity" data-entity="admin" data-source-line="2" data-uid="ent0003" id="entity_admin"><ellipse cx="630.1221" cy="14" fill="#F1F1F1" rx="8" ry="8" style="stroke:#181818;stroke-width:0.5;"/><path d="M630.1221,22 L630.1221,49 M617.1221,30 L643.1221,30 M630.1221,49 L617.1221,64 M630.1221,49 L643.1221,64 " fill="none" style="stroke:#181818;stroke-width:0.5;"/><text fill="#000000" font-family="sans-serif" font-size="14" lengthAdjust="spacing" textLength="44.8643" x="607.69" y="78.4951">Admin</text></g><!--entity extDevelopers--><g class="entity" data-entity="extDevelopers" data-source-line="3" data-uid="ent0004" id="entity_extDevelopers"><ellipse cx="358.1191" cy="492.49" fill="#F1F1F1" rx="8" ry="8" style="stroke:#181818;stroke-width:0.5;"/><path d="M358.1191,500.49 L358.1191,527.49 M345.1191,508.49 L371.1191,508.49 M358.1191,527.49 L345.1191,542.49 M358.1191,527.49 L371.1191,542.49 " fill="none" style="stroke:#181818;stroke-width:0.5;"/><text fill="#000000" font-family="sans-serif" font-size="14" lengthAdjust="spacing" textLength="142.0781" x="287.08" y="556.9851">External Developers</text></g><!--entity WebApp--><g class="entity" data-entity="WebApp" data-source-line="6" data-uid="ent0005" id="entity_WebApp"><rect fill="#F1F1F1" height="62.5938" rx="2.5" ry="2.5" style="stroke:#181818;stroke-width:0.5;" width="109.3369" x="522.45" y="220.8"/><rect fill="#F1F1F1" height="10" style="stroke:#181818;stroke-width:0.5;" width="15" x="611.7869" y="225.8"/><rect fill="#F1F1F1" height="2" style="stroke:#181818;stroke-width:0.5;" width="4" x="609.7869" y="227.8"/><rect fill="#F1F1F1" height="2" style="stroke:#181818;stroke-width:0.5;" width="4" x="609.7869" y="231.8"/><text fill="#000000" font-family="sans-serif" font-size="14" lengthAdjust="spacing" textLength="69.3369" x="537.45" y="253.7951">&#171;System&#187;</text><text fill="#000000" font-family="sans-serif" font-size="14" lengthAdjust="spacing" textLength="63.1436" x="537.45" y="270.092">Web App</text></g><!--entity PlayerService--><g class="entity" data-entity="PlayerService" data-source-line="11" data-uid="ent0006" id="entity_PlayerService"><rect fill="#F1F1F1" height="62.5938" rx="2.5" ry="2.5" style="stroke:#181818;stroke-width:0.5;" width="180.2393" x="777" y="776.88"/><rect fill="#F1F1F1" height="10" style="stroke:#181818;stroke-width:0.5;" width="15" x="937.2393" y="781.88"/><rect fill="#F1F1F1" height="2" style="stroke:#181818;stroke-width:0.5;" width="4" x="935.2393" y="783.88"/><rect fill="#F1F1F1" height="2" style="stroke:#181818;stroke-width:0.5;" width="4" x="935.2393" y="787.88"/><text fill="#000000" font-family="sans-serif" font-size="14" lengthAdjust="spacing" textLength="69.3369" x="792" y="809.8751">&#171;System&#187;</text><text fill="#000000" font-family="sans-serif" font-size="14" lengthAdjust="spacing" textLength="140.2393" x="792" y="826.172">Player Management</text></g><!--entity QuestionService--><g class="entity" data-entity="QuestionService" data-source-line="16" data-uid="ent0007" id="entity_QuestionService"><rect fill="#F1F1F1" height="62.5938" rx="2.5" ry="2.5" style="stroke:#181818;stroke-width:0.5;" width="199.291" x="44.47" y="220.8"/><rect fill="#F1F1F1" height="10" style="stroke:#181818;stroke-width:0.5;" width="15" x="223.761" y="225.8"/><rect fill="#F1F1F1" height="2" style="stroke:#181818;stroke-width:0.5;" width="4" x="221.761" y="227.8"/><rect fill="#F1F1F1" height="2" style="stroke:#181818;stroke-width:0.5;" width="4" x="221.761" y="231.8"/><text fill="#000000" font-family="sans-serif" font-size="14" lengthAdjust="spacing" textLength="69.3369" x="59.47" y="253.7951">&#171;System&#187;</text><text fill="#000000" font-family="sans-serif" font-size="14" lengthAdjust="spacing" textLength="159.291" x="59.47" y="270.092">Question Management</text></g><!--entity HintService--><g class="entity" data-entity="HintService" data-source-line="21" data-uid="ent0008" id="entity_HintService"><rect fill="#F1F1F1" height="62.5938" rx="2.5" ry="2.5" style="stroke:#181818;stroke-width:0.5;" width="151.3301" x="851.45" y="490.84"/><rect fill="#F1F1F1" height="10" style="stroke:#181818;stroke-width:0.5;" width="15" x="982.7801" y="495.84"/><rect fill="#F1F1F1" height="2" style="stroke:#181818;stroke-width:0.5;" width="4" x="980.7801" y="497.84"/><rect fill="#F1F1F1" height="2" style="stroke:#181818;stroke-width:0.5;" width="4" x="980.7801" y="501.84"/><text fill="#000000" font-family="sans-serif" font-size="14" lengthAdjust="spacing" textLength="69.3369" x="866.45" y="523.8351">&#171;System&#187;</text><text fill="#000000" font-family="sans-serif" font-size="14" lengthAdjust="spacing" textLength="111.3301" x="866.45" y="540.132">Hint Generation</text></g><!--entity RewardService--><g class="entity" data-entity="RewardService" data-source-line="26" data-uid="ent0009" id="entity_RewardService"><rect fill="#F1F1F1" height="62.5938" rx="2.5" ry="2.5" style="stroke:#181818;stroke-width:0.5;" width="189.6865" x="203.28" y="776.88"/><rect fill="#F1F1F1" height="10" style="stroke:#181818;stroke-width:0.5;" width="15" x="372.9665" y="781.88"/><rect fill="#F1F1F1" height="2" style="stroke:#181818;stroke-width:0.5;" width="4" x="370.9665" y="783.88"/><rect fill="#F1F1F1" height="2" style="stroke:#181818;stroke-width:0.5;" width="4" x="370.9665" y="787.88"/><text fill="#000000" font-family="sans-serif" font-size="14" lengthAdjust="spacing" textLength="69.3369" x="218.28" y="809.8751">&#171;System&#187;</text><text fill="#000000" font-family="sans-serif" font-size="14" lengthAdjust="spacing" textLength="149.6865" x="218.28" y="826.172">Reward Management</text></g><!--entity OwnAPIService--><g class="entity" data-entity="OwnAPIService" data-source-line="31" data-uid="ent0010" id="entity_OwnAPIService"><rect fill="#F1F1F1" height="62.5938" rx="2.5" ry="2.5" style="stroke:#181818;stroke-width:0.5;" width="213.0791" x="603.58" y="490.84"/><rect fill="#F1F1F1" height="10" style="stroke:#181818;stroke-width:0.5;" width="15" x="796.6591" y="495.84"/><rect fill="#F1F1F1" height="2" style="stroke:#181818;stroke-width:0.5;" width="4" x="794.6591" y="497.84"/><rect fill="#F1F1F1" height="2" style="stroke:#181818;stroke-width:0.5;" width="4" x="794.6591" y="501.84"/><text fill="#000000" font-family="sans-serif" font-size="14" lengthAdjust="spacing" textLength="69.3369" x="618.58" y="523.8351">&#171;System&#187;</text><text fill="#000000" font-family="sans-serif" font-size="14" lengthAdjust="spacing" textLength="173.0791" x="618.58" y="540.132">History API Management</text></g><!--entity LLmService--><g class="entity" data-entity="LLmService" data-source-line="36" data-uid="ent0011" id="entity_LLmService"><rect fill="#F1F1F1" height="62.5938" rx="2.5" ry="2.5" style="stroke:#181818;stroke-width:0.5;" width="164.3525" x="941.94" y="637.28"/><rect fill="#F1F1F1" height="10" style="stroke:#181818;stroke-width:0.5;" width="15" x="1086.2925" y="642.28"/><rect fill="#F1F1F1" height="2" style="stroke:#181818;stroke-width:0.5;" width="4" x="1084.2925" y="644.28"/><rect fill="#F1F1F1" height="2" style="stroke:#181818;stroke-width:0.5;" width="4" x="1084.2925" y="648.28"/><text fill="#000000" font-family="sans-serif" font-size="14" lengthAdjust="spacing" textLength="69.3369" x="956.94" y="670.2751">&#171;System&#187;</text><text fill="#000000" font-family="sans-serif" font-size="14" lengthAdjust="spacing" textLength="124.3525" x="956.94" y="686.572">LLM Management</text></g><!--entity ExternalAPIService--><g class="entity" data-entity="ExternalAPIService" data-source-line="41" data-uid="ent0012" id="entity_ExternalAPIService"><rect fill="#F1F1F1" height="62.5938" rx="2.5" ry="2.5" style="stroke:#181818;stroke-width:0.5;" width="280.5908" x="979.82" y="344.39"/><rect fill="#F1F1F1" height="10" style="stroke:#181818;stroke-width:0.5;" width="15" x="1240.4108" y="349.39"/><rect fill="#F1F1F1" height="2" style="stroke:#181818;stroke-width:0.5;" width="4" x="1238.4108" y="351.39"/><rect fill="#F1F1F1" height="2" style="stroke:#181818;stroke-width:0.5;" width="4" x="1238.4108" y="355.39"/><text fill="#000000" font-family="sans-serif" font-size="14" lengthAdjust="spacing" textLength="62.7607" x="994.82" y="377.3851">&#171;extern&#187;</text><text fill="#000000" font-family="sans-serif" font-size="14" lengthAdjust="spacing" textLength="240.5908" x="994.82" y="393.682">External APIs (LLM, Wikidata, etc.)</text></g><!--entity database--><g class="entity" data-entity="database" data-source-line="46" data-uid="ent0013" id="entity_database"><path d="M384.72,655.93 C384.72,645.93 428.1204,645.93 428.1204,645.93 C428.1204,645.93 471.5208,645.93 471.5208,655.93 L471.5208,681.2269 C471.5208,691.2269 428.1204,691.2269 428.1204,691.2269 C428.1204,691.2269 384.72,691.2269 384.72,681.2269 L384.72,655.93 " fill="#F1F1F1" style="stroke:#181818;stroke-width:0.5;"/><path d="M384.72,655.93 C384.72,665.93 428.1204,665.93 428.1204,665.93 C428.1204,665.93 471.5208,665.93 471.5208,655.93 " fill="none" style="stroke:#181818;stroke-width:0.5;"/><text fill="#000000" font-family="sans-serif" font-size="14" lengthAdjust="spacing" textLength="66.8008" x="394.72" y="682.9251">Database</text></g><!--link user to WebApp--><g class="link" data-entity-1="user" data-entity-2="WebApp" data-source-line="49" data-uid="lnk14" id="link_user_WebApp"><path d="M533.53,82.07 C538.69,104.64 545.55,133.93 552.12,159.8 C557.26,180.03 561.8345,196.8716 566.7745,214.5416 " fill="none" id="user-to-WebApp" style="stroke:#181818;stroke-width:1;stroke-dasharray:7.0,7.0;"/><polygon fill="#181818" points="568.39,220.32,569.8191,210.5754,567.0438,215.5046,562.1145,212.7293,568.39,220.32" style="stroke:#181818;stroke-width:1;"/><text fill="#000000" font-family="sans-serif" font-size="13" lengthAdjust="spacing" textLength="33.8838" x="553.12" y="155.8669">Plays</text></g><!--link admin to WebApp--><g class="link" data-entity-1="admin" data-entity-2="WebApp" data-source-line="50" data-uid="lnk15" id="link_admin_WebApp"><path d="M620.52,82.04 C610.35,121.66 595.9604,177.6781 586.5004,214.5681 " fill="none" id="admin-to-WebApp" style="stroke:#181818;stroke-width:1;stroke-dasharray:7.0,7.0;"/><polygon fill="#181818" points="585.01,220.38,591.1202,212.6557,586.252,215.5367,583.371,210.6685,585.01,220.38" style="stroke:#181818;stroke-width:1;"/><text fill="#000000" font-family="sans-serif" font-size="13" lengthAdjust="spacing" textLength="83.5479" x="606.12" y="155.8669">Administrate</text></g><!--reverse link QuestionService to WebApp--><g class="link" data-entity-1="QuestionService" data-entity-2="WebApp" data-source-line="51" data-uid="lnk17" id="link_QuestionService_WebApp"><path d="M250,252.09 C336.42,252.09 452.17,252.09 522.03,252.09 " fill="none" id="QuestionService-backto-WebApp" style="stroke:#181818;stroke-width:1;"/><polygon fill="#181818" points="244,252.09,253,256.09,249,252.09,253,248.09,244,252.09" style="stroke:#181818;stroke-width:1;"/><text fill="#000000" font-family="sans-serif" font-size="13" lengthAdjust="spacing" textLength="132.8247" x="317.11" y="230.1569">Retrieves generated</text><text fill="#000000" font-family="sans-serif" font-size="13" lengthAdjust="spacing" textLength="125.9565" x="320.5441" y="245.2897">questions for game</text></g><!--link WebApp to PlayerService--><g class="link" data-entity-1="WebApp" data-entity-2="PlayerService" data-source-line="52" data-uid="lnk18" id="link_WebApp_PlayerService"><path d="M632.28,255.38 C817.12,263.78 1403.12,296.55 1403.12,374.69 C1403.12,374.69 1403.12,374.69 1403.12,669.58 C1403.12,760.49 1116.1763,791.7744 963.4263,802.1244 " fill="none" id="WebApp-to-PlayerService" style="stroke:#181818;stroke-width:1;"/><polygon fill="#181818" points="957.44,802.53,966.6898,805.9124,962.4286,802.192,966.149,797.9307,957.44,802.53" style="stroke:#181818;stroke-width:1;"/><text fill="#000000" font-family="sans-serif" font-size="13" lengthAdjust="spacing" textLength="52.6157" x="1431.691" y="519.1969">Handles</text><text fill="#000000" font-family="sans-serif" font-size="13" lengthAdjust="spacing" textLength="107.7578" x="1404.12" y="534.3297">login and signup</text></g><!--link WebApp to HintService--><g class="link" data-entity-1="WebApp" data-entity-2="HintService" data-source-line="53" data-uid="lnk19" id="link_WebApp_HintService"><path d="M632.06,274.4 C669.63,290.45 719.43,314.74 758.12,344.39 C787.74,367.1 788.54,379.8 814.12,406.99 C841.26,435.82 868.7998,463.565 891.7398,486.315 " fill="none" id="WebApp-to-HintService" style="stroke:#181818;stroke-width:1;"/><polygon fill="#181818" points="896,490.54,892.4263,481.3624,892.4498,487.0192,886.793,487.0427,896,490.54" style="stroke:#181818;stroke-width:1;"/><text fill="#000000" font-family="sans-serif" font-size="13" lengthAdjust="spacing" textLength="96.2559" x="840.0758" y="372.7569">Requests hints</text><text fill="#000000" font-family="sans-serif" font-size="13" lengthAdjust="spacing" textLength="146.1675" x="815.12" y="387.8897">based on LLM analysis</text></g><!--link WebApp to RewardService--><g class="link" data-entity-1="WebApp" data-entity-2="RewardService" data-source-line="54" data-uid="lnk20" id="link_WebApp_RewardService"><path d="M522.12,257.77 C410.12,268.82 166.12,301.3 166.12,374.69 C166.12,374.69 166.12,374.69 166.12,669.58 C166.12,715.92 200.6073,749.4024 236.3773,773.2424 " fill="none" id="WebApp-to-RewardService" style="stroke:#181818;stroke-width:1;"/><polygon fill="#181818" points="241.37,776.57,236.0993,768.2502,237.2094,773.797,231.6625,774.9072,241.37,776.57" style="stroke:#181818;stroke-width:1;"/><text fill="#000000" font-family="sans-serif" font-size="13" lengthAdjust="spacing" textLength="58.4111" x="180.3136" y="519.1969">Manages</text><text fill="#000000" font-family="sans-serif" font-size="13" lengthAdjust="spacing" textLength="84.7983" x="167.12" y="534.3297">user rewards</text></g><!--link WebApp to OwnAPIService--><g class="link" data-entity-1="WebApp" data-entity-2="OwnAPIService" data-source-line="55" data-uid="lnk21" id="link_WebApp_OwnAPIService"><path d="M577.45,283.89 C578.92,316.14 584.51,367.51 604.12,406.99 C620.3,439.56 644.2788,465.4078 667.6288,486.4078 " fill="none" id="WebApp-to-OwnAPIService" style="stroke:#181818;stroke-width:1;"/><polygon fill="#181818" points="672.09,490.42,668.073,481.4276,668.3723,487.0765,662.7234,487.3758,672.09,490.42" style="stroke:#181818;stroke-width:1;"/><text fill="#000000" font-family="sans-serif" font-size="13" lengthAdjust="spacing" textLength="148.2686" x="605.12" y="380.2569">Manages game history</text></g><!--link HintService to LLmService--><g class="link" data-entity-1="HintService" data-entity-2="LLmService" data-source-line="57" data-uid="lnk22" id="link_HintService_LLmService"><path d="M918.58,553.79 C915.65,570.61 915.06,591.24 924.12,607.28 C930.8,619.11 935.9458,625.3951 947.1158,633.3651 " fill="none" id="HintService-to-LLmService" style="stroke:#181818;stroke-width:1;"/><polygon fill="#181818" points="952,636.85,946.997,628.3665,947.9299,633.9459,942.3504,634.8787,952,636.85" style="stroke:#181818;stroke-width:1;"/><text fill="#000000" font-family="sans-serif" font-size="13" lengthAdjust="spacing" textLength="168.0859" x="925.12" y="603.3469">Generates hints from LLM</text></g><!--link ExternalAPIService to LLmService--><g class="link" data-entity-1="ExternalAPIService" data-entity-2="LLmService" data-source-line="59" data-uid="lnk23" id="link_ExternalAPIService_LLmService"><path d="M1124.32,407.17 C1129.19,453.42 1132.64,542.74 1098.12,607.28 C1092.1,618.53 1087.5596,624.5584 1077.7896,632.9584 " fill="none" id="ExternalAPIService-to-LLmService" style="stroke:#181818;stroke-width:1;"/><polygon fill="#181818" points="1073.24,636.87,1082.6722,634.0356,1077.0313,633.6103,1077.4567,627.9695,1073.24,636.87" style="stroke:#181818;stroke-width:1;"/><text fill="#000000" font-family="sans-serif" font-size="13" lengthAdjust="spacing" textLength="211.6816" x="1127.12" y="526.6969">Provides metadata for questions</text></g><!--link ExternalAPIService to HintService--><g class="link" data-entity-1="ExternalAPIService" data-entity-2="HintService" data-source-line="60" data-uid="lnk24" id="link_ExternalAPIService_HintService"><path d="M979.34,404.12 C948.34,413.08 921.8,424.1 912.12,436.99 C900.71,452.17 902.3148,467.6066 908.9148,484.8466 " fill="none" id="ExternalAPIService-to-HintService" style="stroke:#181818;stroke-width:1;"/><polygon fill="#181818" points="911.06,490.45,911.5779,480.6148,909.2724,485.7805,904.1066,483.475,911.06,490.45" style="stroke:#181818;stroke-width:1;"/><text fill="#000000" font-family="sans-serif" font-size="13" lengthAdjust="spacing" textLength="180.7051" x="913.12" y="450.0569">Provides metadata for hints</text></g><!--link extDevelopers to OwnAPIService--><g class="link" data-entity-1="extDevelopers" data-entity-2="OwnAPIService" data-source-line="62" data-uid="lnk25" id="link_extDevelopers_OwnAPIService"><path d="M429.35,522.13 C479.27,522.13 540.87,522.13 597.23,522.13 " fill="none" id="extDevelopers-to-OwnAPIService" style="stroke:#181818;stroke-width:1;stroke-dasharray:7.0,7.0;"/><polygon fill="#181818" points="603.23,522.13,594.23,518.13,598.23,522.13,594.23,526.13,603.23,522.13" style="stroke:#181818;stroke-width:1;"/><text fill="#000000" font-family="sans-serif" font-size="13" lengthAdjust="spacing" textLength="138.2964" x="447.37" y="515.1969">Retrieve question list</text></g><!--link database to PlayerService--><g class="link" data-entity-1="database" data-entity-2="PlayerService" data-source-line="64" data-uid="lnk26" id="link_database_PlayerService"><path d="M477.5456,685.0738 C548.2456,707.2238 677.7245,747.8159 770.7845,776.9759 " fill="none" id="database-PlayerService" style="stroke:#181818;stroke-width:1;"/><polygon fill="#181818" points="471.82,683.28,479.2125,689.7878,476.5913,684.7748,481.6042,682.1536,471.82,683.28" style="stroke:#181818;stroke-width:1;"/><polygon fill="#181818" points="776.51,778.77,769.1178,772.2619,771.7388,777.2749,766.7257,779.8959,776.51,778.77" style="stroke:#181818;stroke-width:1;"/><text fill="#000000" font-family="sans-serif" font-size="13" lengthAdjust="spacing" textLength="107.3198" x="674.12" y="742.9469">Stores user data</text></g><!--link database to QuestionService--><g class="link" data-entity-1="database" data-entity-2="QuestionService" data-source-line="65" data-uid="lnk27" id="link_database_QuestionService"><path d="M378.5731,661.1065 C287.0231,646.6865 84.73,599.34 30.12,453.99 C6,389.79 60.5357,325.7619 102.3557,287.6419 " fill="none" id="database-QuestionService" style="stroke:#181818;stroke-width:1;"/><polygon fill="#181818" points="384.5,662.04,376.232,656.6884,379.5609,661.262,374.9872,664.591,384.5,662.04" style="stroke:#181818;stroke-width:1;"/><polygon fill="#181818" points="106.79,283.6,97.444,286.7067,103.0948,286.9683,102.8332,292.6191,106.79,283.6" style="stroke:#181818;stroke-width:1;"/><text fill="#000000" font-family="sans-serif" font-size="13" lengthAdjust="spacing" textLength="108.4878" x="31.12" y="450.0569">Stores questions</text></g><!--reverse link database to RewardService--><g class="link" data-entity-1="database" data-entity-2="RewardService" data-source-line="66" data-uid="lnk28" id="link_database_RewardService"><path d="M403.1098,696.0517 C381.4398,718.9917 351.49,750.69 327.19,776.4 " fill="none" id="database-backto-RewardService" style="stroke:#181818;stroke-width:1;"/><polygon fill="#181818" points="407.23,691.69,398.1419,695.4857,403.7965,695.3247,403.9575,700.9793,407.23,691.69" style="stroke:#181818;stroke-width:1;"/><text fill="#000000" font-family="sans-serif" font-size="13" lengthAdjust="spacing" textLength="97.8618" x="372.12" y="742.9469">Stores rewards</text></g><!--reverse link OwnAPIService to database--><g class="link" data-entity-1="OwnAPIService" data-entity-2="database" data-source-line="67" data-uid="lnk29" id="link_OwnAPIService_database"><path d="M644.9698,556.5053 C591.2998,583.9953 519.15,620.95 471.29,645.46 " fill="none" id="OwnAPIService-backto-database" style="stroke:#181818;stroke-width:1;"/><polygon fill="#181818" points="650.31,553.77,640.4761,554.3128,645.8598,556.0494,644.1232,561.4331,650.31,553.77" style="stroke:#181818;stroke-width:1;"/></g><!--SRC=[XPJ1JiCm38RlUGgB4qYi3r1DaoQ106c8mGuSW4DOl1BH9YN9DlRsE6dQDNI5M-Fu- -FOVyFNJXjOblo01hY5hKN3U0ZEHIMLZt7_4ODdrzyEZU8bNE4EIrsZiMS-2R_TCSBOMbUrLgWSFEFxlAxXXG5Cfwk3TLZDPhIWED06U-idDuMiqEpa6eTChFEUArvWHK1AFsxHEgdLADycZ2hSIkNwz2yUGWBSe4B3lL1AF-6U6_4dtwICdl-mL_FbtJyLM1h40IXlL6QngFxKM2pkHzbsm2VgmB0LDJeZKAA5SvAyX6VvAGLt_1BGhRCBB-oNxzmYT1-DsbLS-XnlEiYoR1RDaeT1MnQCbsu4Kr87gFt8ehKc9MxSP3OOVqxTTaQIAoqKpSXGlAglc6PXGuOkU7KKcf1AQi4SRhaI9TfNLUh2_mzAW9M5sjO9rJUEFpSSOk63meJwYmeWt_d6Kz_BWvKsuLFhv74wX8RUcB2R4gbLEY9SYCuD9c6iNvUdUix8MnzZh1CsHbU-HCPEc610ButUIK5mXOxxwOP-TjqTqqWxTLeabCDOygP0PcJnuRBXpTifTsT3ITVlMMzwQguhQX0s3rxmvg_qePaYSBnW3n1whoQ38KQYdLvQTmkrAZy0]--></g></svg>