<svg xmlns="http://www.w3.org/2000/svg" xmlns:xlink="http://www.w3.org/1999/xlink" contentStyleType="text/css" data-diagram-type="DESCRIPTION" height="607px" preserveAspectRatio="none" style="width:1125px;height:607px;background:#FFFFFF;" version="1.1" viewBox="0 0 1125 607" width="1125px" zoomAndPan="magnify"><defs/><g><!--cluster Application--><g class="cluster" data-entity="Application" data-source-line="1" data-uid="ent0002" id="cluster_Application"><rect fill="none" height="280.59" rx="2.5" ry="2.5" style="stroke:#181818;stroke-width:1;" width="699" x="222.93" y="144.8"/><text fill="#000000" font-family="sans-serif" font-size="14" font-weight="bold" lengthAdjust="spacing" textLength="89.2979" x="527.7811" y="159.7951">Application</text></g><!--cluster Database--><g class="cluster" data-entity="Database" data-source-line="8" data-uid="ent0007" id="cluster_Database"><rect fill="none" height="127.3" rx="2.5" ry="2.5" style="stroke:#181818;stroke-width:1;" width="152" x="87.93" y="474.39"/><text fill="#000000" font-family="sans-serif" font-size="14" font-weight="bold" lengthAdjust="spacing" textLength="74.5049" x="126.6776" y="489.3851">Database</text></g><!--cluster External APIs--><g class="cluster" data-entity="External APIs" data-source-line="12" data-uid="ent0009" id="cluster_External APIs"><rect fill="none" height="127.3" rx="2.5" ry="2.5" style="stroke:#181818;stroke-width:1;" width="390" x="588.93" y="474.39"/><text fill="#000000" font-family="sans-serif" font-size="14" font-weight="bold" lengthAdjust="spacing" textLength="105.4102" x="731.2249" y="489.3851">External APIs</text></g><!--entity WebApp--><g class="entity" data-entity="WebApp" data-source-line="2" data-uid="ent0003" id="entity_WebApp"><ellipse cx="442.9283" cy="188.3" fill="#F1F1F1" rx="8" ry="8" style="stroke:#181818;stroke-width:0.5;"/><path d="M442.9283,196.3 L442.9283,223.3 M429.9283,204.3 L455.9283,204.3 M442.9283,223.3 L429.9283,238.3 M442.9283,223.3 L455.9283,238.3 " fill="none" style="stroke:#181818;stroke-width:0.5;"/><text fill="#000000" font-family="sans-serif" font-size="14" lengthAdjust="spacing" textLength="114.0166" x="385.92" y="252.7951">Web Application</text></g><!--entity UserService--><g class="entity" data-entity="UserService" data-source-line="3" data-uid="ent0004" id="entity_UserService"><ellipse cx="282.9308" cy="341.6" fill="#F1F1F1" rx="8" ry="8" style="stroke:#181818;stroke-width:0.5;"/><path d="M282.9308,349.6 L282.9308,376.6 M269.9308,357.6 L295.9308,357.6 M282.9308,376.6 L269.9308,391.6 M282.9308,376.6 L295.9308,391.6 " fill="none" style="stroke:#181818;stroke-width:0.5;"/><text fill="#000000" font-family="sans-serif" font-size="14" lengthAdjust="spacing" textLength="88.1016" x="238.88" y="406.0951">User Service</text></g><!--entity QuestionService--><g class="entity" data-entity="QuestionService" data-source-line="4" data-uid="ent0005" id="entity_QuestionService"><ellipse cx="452.9243" cy="341.6" fill="#F1F1F1" rx="8" ry="8" style="stroke:#181818;stroke-width:0.5;"/><path d="M452.9243,349.6 L452.9243,376.6 M439.9243,357.6 L465.9243,357.6 M452.9243,376.6 L439.9243,391.6 M452.9243,376.6 L465.9243,391.6 " fill="none" style="stroke:#181818;stroke-width:0.5;"/><text fill="#000000" font-family="sans-serif" font-size="14" lengthAdjust="spacing" textLength="118.8086" x="393.52" y="406.0951">Question Service</text></g><!--entity SecurityService--><g class="entity" data-entity="SecurityService" data-source-line="5" data-uid="ent0006" id="entity_SecurityService"><ellipse cx="611.9296" cy="341.6" fill="#F1F1F1" rx="8" ry="8" style="stroke:#181818;stroke-width:0.5;"/><path d="M611.9296,349.6 L611.9296,376.6 M598.9296,357.6 L624.9296,357.6 M611.9296,376.6 L598.9296,391.6 M611.9296,376.6 L624.9296,391.6 " fill="none" style="stroke:#181818;stroke-width:0.5;"/><text fill="#000000" font-family="sans-serif" font-size="14" lengthAdjust="spacing" textLength="107.1191" x="558.37" y="406.0951">Spring Security</text></g><!--entity DB--><g class="entity" data-entity="DB" data-source-line="9" data-uid="ent0008" id="entity_DB"><ellipse cx="163.9306" cy="517.89" fill="#F1F1F1" rx="8" ry="8" style="stroke:#181818;stroke-width:0.5;"/><path d="M163.9306,525.89 L163.9306,552.89 M150.9306,533.89 L176.9306,533.89 M163.9306,552.89 L150.9306,567.89 M163.9306,552.89 L176.9306,567.89 " fill="none" style="stroke:#181818;stroke-width:0.5;"/><text fill="#000000" font-family="sans-serif" font-size="14" lengthAdjust="spacing" textLength="119.3213" x="104.27" y="582.3851">MySQL Database</text></g><!--entity LLMService--><g class="entity" data-entity="LLMService" data-source-line="13" data-uid="ent0010" id="entity_LLMService"><ellipse cx="646.9251" cy="517.89" fill="#F1F1F1" rx="8" ry="8" style="stroke:#181818;stroke-width:0.5;"/><path d="M646.9251,525.89 L646.9251,552.89 M633.9251,533.89 L659.9251,533.89 M646.9251,552.89 L633.9251,567.89 M646.9251,552.89 L659.9251,567.89 " fill="none" style="stroke:#181818;stroke-width:0.5;"/><text fill="#000000" font-family="sans-serif" font-size="14" lengthAdjust="spacing" textLength="83.8701" x="604.99" y="582.3851">LLM Service</text></g><!--entity WikiDataService--><g class="entity" data-entity="WikiDataService" data-source-line="14" data-uid="ent0011" id="entity_WikiDataService"><ellipse cx="783.9243" cy="517.89" fill="#F1F1F1" rx="8" ry="8" style="stroke:#181818;stroke-width:0.5;"/><path d="M783.9243,525.89 L783.9243,552.89 M770.9243,533.89 L796.9243,533.89 M783.9243,552.89 L770.9243,567.89 M783.9243,552.89 L796.9243,567.89 " fill="none" style="stroke:#181818;stroke-width:0.5;"/><text fill="#000000" font-family="sans-serif" font-size="14" lengthAdjust="spacing" textLength="119.3486" x="724.25" y="582.3851">WikiData Service</text></g><!--entity ExtAPI--><g class="entity" data-entity="ExtAPI" data-source-line="15" data-uid="ent0012" id="entity_ExtAPI"><ellipse cx="920.9248" cy="517.89" fill="#F1F1F1" rx="8" ry="8" style="stroke:#181818;stroke-width:0.5;"/><path d="M920.9248,525.89 L920.9248,552.89 M907.9248,533.89 L933.9248,533.89 M920.9248,552.89 L907.9248,567.89 M920.9248,552.89 L933.9248,567.89 " fill="none" style="stroke:#181818;stroke-width:0.5;"/><text fill="#000000" font-family="sans-serif" font-size="14" lengthAdjust="spacing" textLength="84.9297" x="878.46" y="582.3851">External API</text></g><!--entity User--><g class="entity" data-entity="User" data-source-line="18" data-uid="ent0013" id="entity_User"><ellipse cx="344.9251" cy="14" fill="#F1F1F1" rx="8" ry="8" style="stroke:#181818;stroke-width:0.5;"/><path d="M344.9251,22 L344.9251,49 M331.9251,30 L357.9251,30 M344.9251,49 L331.9251,64 M344.9251,49 L357.9251,64 " fill="none" style="stroke:#181818;stroke-width:0.5;"/><text fill="#000000" font-family="sans-serif" font-size="14" lengthAdjust="spacing" textLength="31.9102" x="328.97" y="78.4951">User</text></g><!--entity Admin--><g class="entity" data-entity="Admin" data-source-line="19" data-uid="ent0014" id="entity_Admin"><ellipse cx="540.9321" cy="14" fill="#F1F1F1" rx="8" ry="8" style="stroke:#181818;stroke-width:0.5;"/><path d="M540.9321,22 L540.9321,49 M527.9321,30 L553.9321,30 M540.9321,49 L527.9321,64 M540.9321,49 L553.9321,64 " fill="none" style="stroke:#181818;stroke-width:0.5;"/><text fill="#000000" font-family="sans-serif" font-size="14" lengthAdjust="spacing" textLength="44.8643" x="518.5" y="78.4951">Admin</text></g><!--entity ExtDev--><g class="entity" data-entity="ExtDev" data-source-line="20" data-uid="ent0015" id="entity_ExtDev"><ellipse cx="1015.9291" cy="341.6" fill="#F1F1F1" rx="8" ry="8" style="stroke:#181818;stroke-width:0.5;"/><path d="M1015.9291,349.6 L1015.9291,376.6 M1002.9291,357.6 L1028.9291,357.6 M1015.9291,376.6 L1002.9291,391.6 M1015.9291,376.6 L1028.9291,391.6 " fill="none" style="stroke:#181818;stroke-width:0.5;"/><text fill="#000000" font-family="sans-serif" font-size="14" lengthAdjust="spacing" textLength="142.0781" x="944.89" y="406.0951">External Developers</text></g><!--link User to WebApp--><g class="link" data-entity-1="User" data-entity-2="WebApp" data-source-line="22" data-uid="lnk16" id="link_User_WebApp"><path d="M336.53,82.09 C334.91,97.2 335.39,114.43 341.93,128.8 C351.32,149.46 363.5351,163.3966 380.8551,177.4066 " fill="none" id="User-to-WebApp" style="stroke:#181818;stroke-width:1;"/><polygon fill="#181818" points="385.52,181.18,381.0382,172.4099,381.6326,178.0355,376.007,178.6298,385.52,181.18" style="stroke:#181818;stroke-width:1;"/><text fill="#000000" font-family="sans-serif" font-size="13" lengthAdjust="spacing" textLength="154.4067" x="342.93" y="124.8669">Interacts via UI (HTTPS)</text></g><!--link Admin to WebApp--><g class="link" data-entity-1="Admin" data-entity-2="WebApp" data-source-line="23" data-uid="lnk17" id="link_Admin_WebApp"><path d="M525.06,82.14 C518.41,96.93 510.29,113.92 501.93,128.8 C492.28,145.98 483.7784,159.2552 473.2084,174.6352 " fill="none" id="Admin-to-WebApp" style="stroke:#181818;stroke-width:1;"/><polygon fill="#181818" points="469.81,179.58,478.2041,174.4283,472.642,175.4593,471.611,169.8972,469.81,179.58" style="stroke:#181818;stroke-width:1;"/><text fill="#000000" font-family="sans-serif" font-size="13" lengthAdjust="spacing" textLength="109.5415" x="510.93" y="124.8669">Manages system</text></g><!--link WebApp to SecurityService--><g class="link" data-entity-1="WebApp" data-entity-2="SecurityService" data-source-line="24" data-uid="lnk18" id="link_WebApp_SecurityService"><path d="M500.38,238.85 C525.17,249.72 552.98,265.28 572.93,286.1 C585.4,299.12 592.2419,311.2632 598.4419,327.0932 " fill="none" id="WebApp-to-SecurityService" style="stroke:#181818;stroke-width:1;"/><polygon fill="#181818" points="600.63,332.68,601.0723,322.8411,598.8066,328.0244,593.6233,325.7586,600.63,332.68" style="stroke:#181818;stroke-width:1;"/><text fill="#000000" font-family="sans-serif" font-size="13" lengthAdjust="spacing" textLength="292.335" x="585.93" y="299.1669">Authentication &amp; Authorization (Method Call)</text></g><!--link WebApp to UserService--><g class="link" data-entity-1="WebApp" data-entity-2="UserService" data-source-line="25" data-uid="lnk19" id="link_WebApp_UserService"><path d="M385.51,233.27 C356.38,243.39 322.83,259.94 301.93,286.1 C291.46,299.2 287.3548,310.9998 285.1048,326.8198 " fill="none" id="WebApp-to-UserService" style="stroke:#181818;stroke-width:1;"/><polygon fill="#181818" points="284.26,332.76,289.4874,324.4129,284.964,327.8098,281.5671,323.2864,284.26,332.76" style="stroke:#181818;stroke-width:1;"/><text fill="#000000" font-family="sans-serif" font-size="13" lengthAdjust="spacing" textLength="127.2705" x="302.93" y="299.1669">Direct Method Calls</text></g><!--link WebApp to QuestionService--><g class="link" data-entity-1="WebApp" data-entity-2="QuestionService" data-source-line="26" data-uid="lnk20" id="link_WebApp_QuestionService"><path d="M439.5,256.29 C438.7,270.92 438.46,287.82 439.93,303.1 C440.86,312.79 441.3928,317.2668 443.2328,326.8868 " fill="none" id="WebApp-to-QuestionService" style="stroke:#181818;stroke-width:1;"/><polygon fill="#181818" points="444.36,332.78,446.598,323.1888,443.4207,327.869,438.7405,324.6917,444.36,332.78" style="stroke:#181818;stroke-width:1;"/><text fill="#000000" font-family="sans-serif" font-size="13" lengthAdjust="spacing" textLength="127.2705" x="440.93" y="299.1669">Direct Method Calls</text></g><!--link QuestionService to LLMService--><g class="link" data-entity-1="QuestionService" data-entity-2="LLMService" data-source-line="27" data-uid="lnk21" id="link_QuestionService_LLMService"><path d="M498.41,409.86 C510.4,419.97 523.24,430.99 534.93,441.39 C559.63,463.38 582.3337,484.6036 603.6637,504.9036 " fill="none" id="QuestionService-to-LLMService" style="stroke:#181818;stroke-width:1;"/><polygon fill="#181818" points="608.01,509.04,604.2482,499.9379,604.3881,505.593,598.733,505.7329,608.01,509.04" style="stroke:#181818;stroke-width:1;"/><text fill="#000000" font-family="sans-serif" font-size="13" lengthAdjust="spacing" textLength="168.6699" x="553.93" y="454.4569">Requests hints (REST API)</text></g><!--link QuestionService to WikiDataService--><g class="link" data-entity-1="QuestionService" data-entity-2="WikiDataService" data-source-line="28" data-uid="lnk22" id="link_QuestionService_WikiDataService"><path d="M496.38,409.62 C509.82,419.11 525.23,428.11 540.93,433.39 C560.95,440.13 713.17,429.94 730.93,441.39 C754.37,456.52 766.0784,479.69 773.5784,503.37 " fill="none" id="QuestionService-to-WikiDataService" style="stroke:#181818;stroke-width:1;"/><polygon fill="#181818" points="775.39,509.09,776.4858,499.3023,773.8803,504.3234,768.8592,501.7178,775.39,509.09" style="stroke:#181818;stroke-width:1;"/><text fill="#000000" font-family="sans-serif" font-size="13" lengthAdjust="spacing" textLength="190.2837" x="749.93" y="454.4569">Fetches metadata (REST API)</text></g><!--link UserService to DB--><g class="link" data-entity-1="UserService" data-entity-2="DB" data-source-line="29" data-uid="lnk23" id="link_UserService_DB"><path d="M238.56,378.06 C173.63,387.59 57.74,408.78 32.93,441.39 C6,476.79 52.0878,505.0455 98.2478,523.9555 " fill="none" id="UserService-to-DB" style="stroke:#181818;stroke-width:1;"/><polygon fill="#181818" points="103.8,526.23,96.9881,519.1168,99.1732,524.3346,93.9554,526.5197,103.8,526.23" style="stroke:#181818;stroke-width:1;"/><text fill="#000000" font-family="sans-serif" font-size="13" lengthAdjust="spacing" textLength="213.2495" x="33.93" y="454.4569">Stores/Retrieves user data (SQL)</text></g><!--link QuestionService to DB--><g class="link" data-entity-1="QuestionService" data-entity-2="DB" data-source-line="30" data-uid="lnk24" id="link_QuestionService_DB"><path d="M395.99,409.87 C380.04,418.89 362.3,427.58 344.93,433.39 C319,442.07 308.84,430.12 283.93,441.39 C249.61,456.92 221.9993,481.2675 199.8093,504.7675 " fill="none" id="QuestionService-to-DB" style="stroke:#181818;stroke-width:1;"/><polygon fill="#181818" points="195.69,509.13,204.7773,505.3325,199.1228,505.4946,198.9606,499.8401,195.69,509.13" style="stroke:#181818;stroke-width:1;"/><text fill="#000000" font-family="sans-serif" font-size="13" lengthAdjust="spacing" textLength="241.0586" x="284.93" y="454.4569">Stores/Retrieves question data (SQL)</text></g><!--link ExtDev to ExtAPI--><g class="link" data-entity-1="ExtDev" data-entity-2="ExtAPI" data-source-line="31" data-uid="lnk25" id="link_ExtDev_ExtAPI"><path d="M1000.35,409.69 C993.62,425.03 985.36,442.79 976.93,458.39 C967.7,475.46 959.6845,488.6323 949.6545,504.0323 " fill="none" id="ExtDev-to-ExtAPI" style="stroke:#181818;stroke-width:1;"/><polygon fill="#181818" points="946.38,509.06,954.6436,503.7015,949.1088,504.8703,947.94,499.3355,946.38,509.06" style="stroke:#181818;stroke-width:1;"/><text fill="#000000" font-family="sans-serif" font-size="13" lengthAdjust="spacing" textLength="131.9741" x="985.93" y="454.4569">Accesses API (HTTP)</text></g><!--SRC=[TPD1Ru9048Nl_8e9XqOEflSUcc2ngOaaAfgULvpefhZWpc9gc_xtpYvG5c8lPEVj-sQNUQ0nDq8T2uGmhgf2viB8KeNm7K3uZdiOY8A0DPPuSqUe8KDzbJcw7IkqDM-lQoGB3IoTsDkoIajrP5DUQsbkpjKLdUid27H_oqGOiHU4xeeGfhTilOHUP3wPZP3vfq6jH07nQa4jjrocWwjn_NShVdFv8MtFWQKJFP_VsNbOuAKzN-Icr6uexJ8-dALgrpsOu1MBia9D7SzA4BZfJgVFxRpX2HQA2QO9hbB0RW6Jj-rsbKM1wplqfaA98nBGZGoUWrQtbj5isHlNveJAj1d3WnDABR-QUf8YbmTu4KKH-PsykBbB8ksymJEJRnu5_mymTbcopuMX3LwiXU0a5JydctcsjQEFxgAZl9X_HPEVU2vdDE9Wu_Kw-EzZwMJ6GCPX8Jrkq6Z9GH7KDfS6vU_k_hdtoKltGtXqaxQ3cW_7vf7dICI0BLt6qIy0]--></g></svg>